<svg width="1440" height="698" viewBox="0 0 1440 698" fill="none" xmlns="http://www.w3.org/2000/svg">
<rect x="0.00195312" width="1440" height="698" fill="white"/>
<path d="M1440 698V-0.5H1245.5L547 698H1440Z" fill="#EFF0FD"/>
<g style="mix-blend-mode:luminosity" opacity="0.35">
<path opacity="0.2" d="M1313.12 518.532L1294.5 504.558L1339.52 573.324L1369.35 514.535L1313.12 518.536L1313.12 518.532ZM1465.66 533.991L1431.35 570.67L1449.5 484.992L1465.65 533.99L1465.66 533.991ZM1582.55 474.879L1515.4 488.046L1514.18 453.672L1582.55 474.875L1582.55 474.879ZM1385.92 468.393L1430.34 431.935L1449.5 484.992L1385.92 468.393ZM1229.22 405.166L1197.2 364.385L1238.89 396.205L1289.89 402.14L1252.68 480.245L1229.22 405.166L1229.22 405.166ZM1289.89 402.145L1310.84 430.341L1306.52 451.668L1289.89 402.145L1289.89 402.145ZM1362.63 448.774L1385.92 468.393L1369.35 514.535L1350.86 490.087L1362.63 448.779L1362.63 448.774ZM971.438 505.424L950.167 481.154L994.667 421.058L971.438 505.424ZM998.592 603.744L1035.66 593.567L1101.41 571.515L1049.96 643.406L993.167 605.234L974.123 584.848L998.592 603.744ZM933.675 522.519L940.465 571.545L878.054 535.779L905.971 495.041L933.675 522.519ZM878.945 385.988L916.57 304.918L936.448 388.507L878.945 385.988ZM1122.75 489.253L1151.01 439.485L1148.02 476.701L1205.73 481.089L1252.67 480.245L1306.52 451.663L1294.5 504.558L1251.08 503.394L1252.4 537.622L1194.4 510.242L1160.27 485.568L1122.75 489.258L1122.75 489.253ZM1175.05 449.123L1198.51 398.608L1229.22 405.161L1218.5 450.025L1252.67 480.24L1191.16 455.579L1170.06 459.866L1151.01 439.48L1175.05 449.118L1175.05 449.123ZM1295.73 385.407L1377.68 416.272L1362.62 448.768L1310.83 430.336L1295.73 385.407L1295.73 385.407ZM1151.01 439.485L1119.14 409.911L1105.48 362.932L1103.82 325.106L1197.19 364.385L1154.83 383.206L1151.01 439.49L1151.01 439.485ZM1449.5 484.992L1396.06 515.46L1431.35 570.67L1369.35 514.53L1449.5 484.992ZM1430.33 431.935L1469.91 443.706L1477.61 459.672L1430.33 431.935ZM1551.82 390.947L1514.17 453.672L1469.91 443.701L1551.82 390.947ZM1477.61 459.672L1515.39 488.045L1465.66 533.991L1487.52 487.096L1477.61 459.672L1477.61 459.672ZM1035.65 593.562L1004.39 531.992L1043.91 524.418L1035.65 593.567L1035.65 593.562ZM950.158 481.148L905.967 495.035L833.712 497.358L903.656 441.917L950.158 481.148ZM1004.39 531.987L974.119 584.843L940.46 571.54L971.429 505.418L1004.39 531.992L1004.39 531.987ZM994.662 421.053L903.661 441.912L878.945 385.983L960.702 426.856L994.662 421.053ZM1068.39 420.128L1043.92 524.413L1036.35 452.877L1068.39 420.133L1068.39 420.128ZM1036.35 452.873L994.662 421.053L1002.63 413.665L966.552 410.118L978.938 383.72L1004.34 412.093L1019.44 415.317L1068.4 420.129L1035.04 418.649L1036.36 452.878L1036.35 452.873ZM1012.59 397.022L978.933 383.72L959.889 363.334L916.565 304.913L1060.99 379.769L1036.62 395.5L1012.58 397.022L1012.59 397.022ZM936.449 388.502L959.889 363.334L966.547 410.118L936.449 388.502ZM1159.18 533.434L1194.39 510.232L1171.92 536.195L1101.41 571.505L1076.69 515.576L1159.18 533.435L1159.18 533.434ZM1068.39 420.123L1075.82 387.452L1060.99 379.77L1080.41 367.233L1119.13 409.906L1076.69 515.576L1068.38 420.127L1068.39 420.123Z" fill="url(#paint0_radial_0_404)"/>
<path opacity="0.5" d="M833.525 497.419C833.513 497.384 833.511 497.35 833.519 497.318L833.52 497.308C833.527 497.28 833.538 497.257 833.559 497.235C833.565 497.23 833.574 497.226 833.58 497.217C833.58 497.217 833.581 497.207 833.586 497.208L903.406 441.862L878.755 386.077C878.755 386.077 878.756 386.063 878.757 386.053C878.75 386.029 878.747 386.004 878.749 385.976C878.75 385.961 878.751 385.952 878.752 385.938C878.753 385.928 878.754 385.919 878.755 385.909L916.38 304.839C916.38 304.839 916.38 304.839 916.38 304.834C916.392 304.806 916.413 304.779 916.439 304.762C916.439 304.762 916.449 304.758 916.454 304.754C916.454 304.754 916.454 304.754 916.459 304.754C916.494 304.733 916.533 304.727 916.571 304.725C916.571 304.725 916.576 304.726 916.581 304.726C916.619 304.729 916.651 304.746 916.678 304.768C916.688 304.768 916.692 304.778 916.696 304.783C916.705 304.789 916.714 304.795 916.718 304.805L960.024 363.209L979.032 383.559L1012.6 396.83L1036.55 395.315L1080.29 367.073C1080.29 367.073 1080.34 367.049 1080.36 367.046C1080.38 367.043 1080.4 367.045 1080.43 367.046C1080.43 367.046 1080.43 367.047 1080.44 367.047C1080.44 367.048 1080.45 367.053 1080.46 367.054C1080.47 367.055 1080.48 367.065 1080.5 367.071C1080.51 367.077 1080.52 367.083 1080.52 367.093C1080.53 367.093 1080.54 367.099 1080.54 367.109L1118.68 409.128L1105.27 362.995C1105.27 362.995 1105.27 362.971 1105.26 362.961C1105.26 362.956 1105.26 362.951 1105.26 362.946L1103.6 325.12C1103.6 325.12 1103.6 325.12 1103.6 325.116C1103.6 325.092 1103.61 325.068 1103.61 325.049C1103.61 325.04 1103.62 325.031 1103.62 325.021C1103.62 325.012 1103.63 325.003 1103.64 324.994C1103.64 324.994 1103.64 324.989 1103.65 324.985C1103.65 324.976 1103.66 324.972 1103.67 324.963C1103.68 324.954 1103.69 324.946 1103.7 324.937C1103.71 324.933 1103.72 324.928 1103.73 324.924C1103.74 324.916 1103.76 324.913 1103.78 324.914C1103.78 324.914 1103.79 324.915 1103.79 324.911C1103.79 324.911 1103.8 324.911 1103.8 324.911C1103.82 324.913 1103.84 324.915 1103.87 324.922C1103.87 324.922 1103.87 324.922 1103.88 324.922C1103.88 324.922 1103.88 324.922 1103.88 324.923L1197.24 364.196L1197.25 364.197C1197.26 364.197 1197.27 364.208 1197.27 364.213C1197.28 364.214 1197.28 364.214 1197.29 364.219L1197.31 364.23L1238.91 395.985L1295.67 385.204C1295.67 385.204 1295.68 385.205 1295.69 385.206C1295.69 385.206 1295.7 385.206 1295.71 385.207C1295.71 385.207 1295.71 385.208 1295.72 385.209C1295.73 385.209 1295.74 385.21 1295.74 385.21C1295.75 385.211 1295.76 385.212 1295.77 385.212L1295.78 385.213L1377.72 416.078C1377.77 416.096 1377.82 416.138 1377.84 416.193C1377.86 416.247 1377.86 416.305 1377.83 416.355L1362.85 448.714L1385.89 468.125L1430.18 431.777C1430.18 431.777 1430.19 431.773 1430.19 431.769C1430.21 431.756 1430.23 431.748 1430.25 431.744C1430.26 431.745 1430.27 431.736 1430.28 431.737C1430.3 431.734 1430.33 431.736 1430.35 431.743C1430.35 431.743 1430.35 431.744 1430.36 431.744L1469.74 443.456L1494.57 368.814C1494.57 368.814 1494.57 368.814 1494.57 368.809C1494.57 368.795 1494.58 368.791 1494.6 368.778C1494.6 368.768 1494.61 368.755 1494.62 368.746C1494.63 368.737 1494.64 368.728 1494.65 368.72C1494.66 368.711 1494.67 368.702 1494.68 368.698C1494.69 368.694 1494.7 368.691 1494.72 368.687C1494.73 368.688 1494.74 368.679 1494.75 368.68C1494.77 368.681 1494.78 368.683 1494.8 368.684C1494.8 368.685 1494.82 368.686 1494.83 368.687C1494.83 368.687 1494.83 368.687 1494.83 368.687L1551.86 390.757C1551.86 390.757 1551.86 390.757 1551.86 390.757C1551.87 390.757 1551.87 390.758 1551.88 390.763L1551.89 390.764C1551.89 390.764 1551.9 390.774 1551.91 390.78C1551.91 390.78 1551.92 390.79 1551.92 390.796C1551.92 390.796 1551.93 390.806 1551.93 390.811C1551.93 390.811 1551.94 390.821 1551.94 390.826C1551.94 390.826 1551.94 390.836 1551.95 390.841C1551.95 390.846 1551.96 390.851 1551.97 390.861C1551.97 390.861 1551.97 390.861 1551.97 390.866L1582.68 474.798C1582.68 474.798 1582.68 474.798 1582.68 474.803C1582.69 474.823 1582.69 474.847 1582.69 474.871C1582.69 474.871 1582.69 474.871 1582.69 474.876C1582.69 474.9 1582.69 474.924 1582.68 474.947C1582.68 474.951 1582.67 474.96 1582.66 474.965C1582.65 474.978 1582.65 474.992 1582.63 475.005C1582.63 475.01 1582.62 475.018 1582.61 475.023C1582.6 475.031 1582.59 475.04 1582.57 475.048C1582.57 475.048 1582.56 475.052 1582.56 475.057C1582.56 475.057 1582.55 475.056 1582.54 475.055C1582.54 475.055 1582.53 475.059 1582.52 475.063L1515.37 488.23C1515.37 488.23 1515.37 488.23 1515.37 488.229C1515.37 488.229 1515.36 488.229 1515.36 488.228C1515.35 488.228 1515.35 488.227 1515.34 488.227C1515.34 488.227 1515.34 488.227 1515.33 488.226L1487.59 487.283L1465.78 534.058C1465.78 534.058 1465.77 534.071 1465.77 534.076C1465.76 534.085 1465.76 534.099 1465.75 534.108L1431.45 570.787C1431.45 570.787 1431.44 570.786 1431.43 570.795C1431.43 570.795 1431.43 570.8 1431.43 570.805C1431.42 570.809 1431.41 570.813 1431.4 570.817C1431.39 570.826 1431.38 570.83 1431.37 570.838C1431.37 570.838 1431.37 570.838 1431.36 570.842C1431.35 570.846 1431.34 570.845 1431.33 570.849C1431.32 570.848 1431.31 570.858 1431.31 570.857L1339.47 573.51C1339.47 573.51 1339.45 573.509 1339.44 573.508C1339.42 573.507 1339.4 573.505 1339.39 573.494L1252.26 537.787C1252.26 537.787 1252.26 537.787 1252.26 537.787L1252.25 537.786L1194.4 510.476L1172.03 536.323C1172.03 536.328 1172.02 536.332 1172.01 536.336C1172 536.345 1171.99 536.354 1171.98 536.362C1171.98 536.362 1171.98 536.362 1171.97 536.361L1101.5 571.646L1050.08 643.497C1050.08 643.497 1050.07 643.505 1050.06 643.51C1050.05 643.528 1050.03 643.541 1050.01 643.553C1050.01 643.553 1050 643.562 1050 643.567C1050 643.567 1049.99 643.566 1049.98 643.565C1049.98 643.565 1049.97 643.574 1049.97 643.574C1049.94 643.581 1049.92 643.584 1049.89 643.582C1049.86 643.579 1049.83 643.567 1049.8 643.55L993.007 605.378C993.007 605.378 992.984 605.362 992.971 605.346L973.962 584.997L940.35 571.712C940.327 571.701 940.304 571.689 940.287 571.669C940.287 571.669 940.278 571.658 940.278 571.654C940.265 571.638 940.252 571.623 940.244 571.603C940.244 571.603 940.244 571.603 940.24 571.593C940.24 571.588 940.241 571.579 940.242 571.574C940.242 571.564 940.234 571.554 940.234 571.545L933.475 522.741L878.074 535.952C878.074 535.952 878.045 535.949 878.036 535.949C878.026 535.948 878.021 535.952 878.011 535.951C878.011 535.951 878.007 535.951 878.002 535.951C877.968 535.948 877.941 535.936 877.918 535.92C877.918 535.92 877.909 535.914 877.909 535.909C877.909 535.909 877.905 535.909 877.9 535.909L833.579 497.514C833.552 497.493 833.54 497.468 833.528 497.438C833.528 497.438 833.528 497.438 833.524 497.433C833.524 497.433 833.525 497.424 833.525 497.419ZM940.572 570.833L971.015 505.834L933.895 522.642L940.571 570.838L940.572 570.833ZM1465.69 533.441L1487.21 487.281L1449.79 485.212L1465.69 533.441ZM1494.93 369.146L1470.29 443.223L1551.38 390.996L1494.93 369.146L1494.93 369.146ZM1012.71 397.228L1004.83 411.619L1035.67 395.78L1012.71 397.233L1012.71 397.228ZM1395.94 515.665L1369.9 514.757L1430.36 569.502L1395.94 515.665L1395.94 515.665ZM1312.95 518.666L1295.31 505.419L1337.98 570.61L1312.95 518.666ZM1339.52 572.867L1369.01 514.765L1313.43 518.715L1339.53 572.868L1339.52 572.867ZM1313.11 518.281L1349.92 490.537L1294.96 504.652L1313.11 518.276L1313.11 518.281ZM950.032 480.984L993.484 422.308L906.885 494.544L950.032 480.984ZM1289.85 402.692L1253.12 479.787L1306.27 451.574L1289.85 402.692ZM1228.86 405.778L1170.73 459.537L1218.33 449.866L1228.87 405.778L1228.86 405.778ZM1218.72 449.966L1252.26 479.62L1229.24 405.939L1218.72 449.966ZM1306.47 450.885L1310.62 430.394L1290.49 403.302L1306.47 450.89L1306.47 450.885ZM1306.75 451.594L1349.85 488.942L1310.94 430.867L1306.75 451.599L1306.75 451.594ZM1306.65 452.046L1294.78 504.286L1350.43 489.989L1306.65 452.046ZM1306.23 452.06L1253.09 480.264L1294.37 504.253L1306.23 452.06L1306.23 452.06ZM1252.85 480.595L1251.3 503.2L1293.72 504.338L1252.85 480.59L1252.85 480.595ZM1218.58 450.381L1206.04 480.888L1252.15 480.062L1218.58 450.381ZM1218.17 450.314L1170.62 459.974L1205.64 480.802L1218.17 450.314ZM1150.74 440.392L1123.26 488.781L1147.83 476.579L1150.74 440.392ZM1148.26 476.274L1169.76 459.855L1151.18 439.973L1148.26 476.279L1148.26 476.274ZM961.01 426.611L993.905 420.989L966.672 410.401L961.01 426.611ZM994.618 420.832L1003.84 412.286L967.804 410.403L994.619 420.828L994.618 420.832ZM994.979 421.054L1035.21 451.76L1004.31 412.411L994.979 421.054ZM1036.13 452.272L1034.84 418.829L1004.84 412.421L1036.13 452.268L1036.13 452.272ZM1036.54 452.412L1067.93 420.329L1035.25 418.877L1036.54 452.412ZM1068.03 420.812L1036.57 452.971L1043.99 523.219L1068.03 420.812L1068.03 420.812ZM1044.19 524.147L1076.48 515.442L1068.3 421.429L1044.2 524.142L1044.19 524.147ZM994.781 421.417L971.799 504.882L1036.03 452.902L994.776 421.421L994.781 421.417ZM994.18 422.072L950.425 481.16L971.341 505.021L994.18 422.072ZM993.957 421.401L960.819 427.066L907.405 493.594L993.952 421.401L993.957 421.401ZM966.313 410.218L937.184 389.301L960.652 426.414L966.308 410.217L966.313 410.218ZM966.289 409.697L959.759 363.806L936.766 388.494L966.294 409.698L966.289 409.697ZM1003.86 411.889L978.997 384.108L966.872 409.952L1003.86 411.885L1003.86 411.889ZM1034.86 418.427L1036.41 395.875L1004.94 412.04L1034.85 418.431L1034.86 418.427ZM1035.26 418.48L1067.77 419.922L1036.81 395.922L1035.26 418.48ZM1076.83 514.737L1118.82 410.21L1068.62 420.318L1076.83 514.737ZM1077.11 515.139L1122.55 489.163L1118.99 410.881L1077.11 515.139ZM1122.92 488.566L1150.76 439.554L1119.37 410.428L1122.92 488.571L1122.92 488.566ZM1151.23 439.439L1169.72 459.238L1154.93 384.778L1151.22 439.439L1151.23 439.439ZM1170.14 459.248L1198.24 398.757L1155.1 383.545L1170.14 459.249L1170.14 459.248ZM1198.63 398.871L1170.68 459.048L1228.79 405.307L1198.63 398.867L1198.63 398.871ZM1252.71 479.719L1289.56 402.39L1229.49 405.384L1252.71 479.72L1252.71 479.719ZM1310.24 429.216L1295.73 386.063L1290.11 402.138L1310.23 429.216L1310.24 429.216ZM1350.78 489.634L1362.38 448.93L1311.35 430.766L1350.78 489.634ZM1251.29 503.631L1252.58 537.243L1293.93 504.778L1251.29 503.631ZM1252.45 480.485L1206.57 481.311L1250.9 503.109L1252.45 480.49L1252.45 480.485ZM1170.07 460.15L1148.57 476.578L1204.88 480.855L1170.07 460.15ZM1123.1 489.339L1171.38 535.435L1147.91 477.018L1123.1 489.339ZM1122.72 489.537L1077.26 515.526L1171.26 535.88L1122.72 489.537ZM1076.58 515.853L1044.35 524.539L1100.88 570.841L1076.58 515.853ZM1036.23 453.74L1004.72 531.754L1043.69 524.283L1036.23 453.74ZM1004.69 532.169L1035.53 592.899L1043.68 524.695L1004.69 532.169ZM1004.49 532.676L993.404 604.979L1035.36 593.46L1004.49 532.676ZM1035.87 453.556L971.753 505.444L1004.3 531.686L1035.87 453.556L1035.87 453.556ZM950.22 481.56L934.042 522.15L971.092 505.375L950.22 481.56ZM949.807 481.498L906.345 495.157L933.593 522.18L949.812 481.498L949.807 481.498ZM960.152 427.241L903.866 442.101L906.144 494.516L960.152 427.241ZM936.329 388.731L879.887 386.262L960.137 426.381L936.329 388.736L936.329 388.731ZM936.553 388.116L959.619 363.353L916.991 305.863L936.553 388.116ZM966.65 409.444L978.687 383.79L960.181 363.976L966.65 409.444ZM1004.29 411.771L1012.3 397.155L979.656 384.254L1004.29 411.771ZM1068.26 419.8L1080.1 367.706L1036.98 395.547L1068.26 419.8ZM1068.66 419.895L1118.74 409.805L1080.52 367.688L1068.66 419.895ZM1150.84 439.071L1154.59 383.656L1119.45 409.95L1150.84 439.071ZM1105.67 362.817L1154.09 382.713L1104.05 325.699L1105.67 362.817ZM1105.79 363.307L1119.25 409.597L1154.41 383.281L1105.79 363.307L1105.79 363.307ZM1198.29 398.344L1196.99 364.718L1155.37 383.207L1198.29 398.344ZM1198.7 398.469L1228.7 404.872L1197.41 365.026L1198.7 398.469ZM1287.42 402.089L1238.95 396.444L1229.76 404.96L1287.42 402.089ZM1289.74 401.949L1295.42 385.701L1240.22 396.184L1289.74 401.949ZM1310.99 430.209L1361.78 448.285L1296.18 386.143L1310.98 430.204L1310.99 430.209ZM1351.07 490.07L1369.07 513.858L1362.53 449.877L1351.07 490.07ZM1350.81 490.399L1313.78 518.312L1368.96 514.387L1350.81 490.399ZM1395.8 515.284L1385.86 469.164L1369.63 514.375L1395.8 515.284ZM1396.19 515.182L1448.95 485.095L1386.18 468.701L1396.19 515.177L1396.19 515.182ZM1477.26 459.742L1430.71 432.43L1449.58 484.676L1477.26 459.742ZM1449.99 484.854L1487.21 486.911L1477.51 460.061L1449.99 484.854L1449.99 484.854ZM1551.19 391.628L1470.42 443.651L1514.07 453.48L1551.19 391.628ZM1470.27 444.032L1477.72 459.483L1513.1 453.678L1470.27 444.032ZM1551.77 391.455L1514.48 453.595L1582.21 474.601L1551.77 391.455ZM1513.97 453.952L1478.1 459.836L1515.17 487.666L1513.97 453.951L1513.97 453.952ZM1478.02 460.286L1487.65 486.938L1514.75 487.861L1478.02 460.286ZM1396.34 515.573L1431.25 570.18L1449.2 485.431L1396.34 515.573ZM1369.4 514.903L1339.84 573.152L1430.83 570.525L1369.4 514.903L1369.4 514.903ZM1294.44 504.897L1252.78 537.605L1338.98 572.928L1294.44 504.897ZM1250.87 503.562L1206.47 481.73L1252.15 537.063L1250.86 503.562L1250.87 503.562ZM1148.71 477.002L1194.29 509.958L1205.43 481.312L1148.71 477.002ZM1148.46 477.322L1171.98 535.853L1194.08 510.311L1148.46 477.322ZM1077.03 515.905L1101.5 571.272L1171.3 536.316L1077.03 515.9L1077.03 515.905ZM1044.06 524.851L1035.89 593.312L1100.99 571.479L1044.07 524.857L1044.06 524.851ZM1035.51 593.856L993.633 605.353L1049.6 642.967L1035.51 593.856ZM993.014 604.827L1004.02 533.083L974.363 584.857L993.014 604.827ZM974.29 584.165L1004.12 532.084L971.643 505.9L974.29 584.165ZM905.99 495.396L878.509 535.498L933.259 522.445L905.99 495.396ZM878.004 535.514L905.566 495.294L834.236 497.588L878.004 535.514ZM905.749 494.882L903.466 442.365L834.326 497.135L905.757 494.84L905.749 494.882ZM903.769 441.719L960.122 426.845L879.352 386.467L903.769 441.719ZM936.18 388.335L916.496 305.578L879.245 385.839L936.175 388.33L936.18 388.335ZM1104.55 325.679L1154.87 382.998L1196.67 364.427L1104.55 325.674L1104.55 325.679ZM1229.23 404.907L1238.56 396.263L1198.33 365.557L1229.23 404.907ZM1296.6 385.995L1362.55 448.469L1377.39 416.424L1296.59 385.99L1296.6 385.995ZM1362.87 449.292L1369.46 513.66L1385.67 468.496L1362.87 449.292ZM1449.17 484.738L1430.23 432.314L1386.35 468.336L1449.17 484.738ZM1477.12 459.199L1469.75 443.913L1431.88 432.647L1477.13 459.199L1477.12 459.199ZM1514.38 453.995L1515.58 487.844L1581.7 474.876L1514.38 453.995ZM1465.41 533.984L1449.53 485.814L1431.69 570.04L1465.41 533.984ZM1205.78 481.533L1194.64 510.179L1251.64 537.088L1205.77 481.528L1205.78 481.533ZM1035.89 593.739L1050.02 642.988L1100.86 571.948L1035.89 593.739ZM973.891 584.588L971.244 506.318L940.724 571.479L973.891 584.588Z" fill="url(#paint1_radial_0_404)"/>
<path d="M1367.3 512.106C1366.65 512.652 1366.25 513.43 1366.19 514.269C1366.12 515.107 1366.38 515.94 1366.93 516.585C1367.48 517.23 1368.25 517.63 1369.09 517.699C1369.93 517.769 1370.76 517.502 1371.41 516.955C1372.05 516.409 1372.45 515.631 1372.52 514.792C1372.59 513.953 1372.33 513.12 1371.78 512.476C1371.23 511.831 1370.46 511.431 1369.62 511.361C1368.78 511.292 1367.94 511.559 1367.3 512.106ZM1292.57 385.145C1292.64 384.307 1293.04 383.529 1293.68 382.982C1294.33 382.436 1295.16 382.169 1296 382.238C1296.84 382.307 1297.61 382.707 1298.16 383.352C1298.71 383.997 1298.97 384.83 1298.91 385.669C1298.84 386.508 1298.44 387.285 1297.79 387.832C1297.15 388.378 1296.31 388.646 1295.47 388.576C1294.64 388.507 1293.86 388.107 1293.31 387.462C1292.77 386.817 1292.5 385.984 1292.57 385.145ZM1339.78 570.154C1340.62 570.224 1341.4 570.624 1341.94 571.269C1342.49 571.913 1342.76 572.746 1342.69 573.585C1342.62 574.424 1342.22 575.202 1341.57 575.748C1340.93 576.295 1340.1 576.562 1339.26 576.493C1338.42 576.423 1337.64 576.023 1337.09 575.378C1336.55 574.733 1336.28 573.9 1336.35 573.062C1336.42 572.223 1336.82 571.445 1337.46 570.899C1338.11 570.352 1338.94 570.085 1339.78 570.154ZM1308.41 432.391C1307.86 431.746 1307.6 430.913 1307.66 430.074C1307.73 429.236 1308.13 428.458 1308.78 427.911C1309.42 427.365 1310.26 427.098 1311.1 427.167C1311.93 427.236 1312.71 427.636 1313.26 428.281C1313.81 428.926 1314.07 429.759 1314 430.598C1313.93 431.437 1313.53 432.214 1312.89 432.761C1312.24 433.307 1311.41 433.574 1310.57 433.505C1309.73 433.436 1308.96 433.036 1308.41 432.391ZM1347.69 489.82C1347.76 488.981 1348.16 488.204 1348.8 487.657C1349.45 487.111 1350.28 486.844 1351.12 486.913C1351.96 486.982 1352.74 487.382 1353.28 488.027C1353.83 488.672 1354.1 489.505 1354.03 490.344C1353.96 491.183 1353.56 491.96 1352.91 492.507C1352.27 493.053 1351.43 493.32 1350.6 493.251C1349.76 493.182 1348.98 492.782 1348.43 492.137C1347.89 491.492 1347.62 490.659 1347.69 489.82ZM1294.76 501.392C1295.51 501.454 1296.21 501.776 1296.74 502.304C1297.27 502.833 1297.6 503.532 1297.66 504.276C1297.73 505.021 1297.53 505.767 1297.11 506.38C1296.68 506.992 1296.05 507.434 1295.32 507.629C1294.97 507.724 1294.6 507.756 1294.24 507.726C1293.4 507.657 1292.62 507.257 1292.08 506.612C1291.53 505.967 1291.26 505.134 1291.33 504.295C1291.4 503.457 1291.8 502.679 1292.45 502.132C1293.09 501.586 1293.93 501.319 1294.76 501.388M1290.15 398.975C1290.99 399.045 1291.77 399.445 1292.31 400.09C1292.86 400.734 1293.13 401.567 1293.06 402.406C1292.99 403.245 1292.59 404.023 1291.94 404.569C1291.3 405.116 1290.46 405.383 1289.63 405.313C1288.79 405.244 1288.01 404.844 1287.46 404.199C1286.92 403.554 1286.65 402.721 1286.72 401.883C1286.79 401.044 1287.19 400.266 1287.83 399.72C1288.48 399.173 1289.31 398.906 1290.15 398.975ZM1313.38 515.362C1314.22 515.432 1315 515.832 1315.54 516.477C1316.09 517.121 1316.36 517.954 1316.29 518.793C1316.22 519.632 1315.82 520.41 1315.17 520.956C1314.53 521.503 1313.69 521.77 1312.85 521.701C1312.02 521.631 1311.24 521.231 1310.69 520.586C1310.15 519.941 1309.88 519.108 1309.95 518.27C1310.02 517.431 1310.42 516.653 1311.06 516.107C1311.71 515.56 1312.54 515.293 1313.38 515.362ZM1306.79 448.494C1307.63 448.563 1308.4 448.963 1308.95 449.608C1309.5 450.253 1309.76 451.086 1309.69 451.925C1309.62 452.763 1309.22 453.541 1308.58 454.088C1307.93 454.634 1307.1 454.901 1306.26 454.832C1305.42 454.763 1304.65 454.362 1304.1 453.718C1303.55 453.073 1303.29 452.24 1303.36 451.401C1303.42 450.562 1303.83 449.784 1304.47 449.238C1305.11 448.691 1305.95 448.424 1306.79 448.494ZM1251.34 500.22C1252.18 500.289 1252.96 500.689 1253.51 501.334C1254.05 501.979 1254.32 502.812 1254.25 503.651C1254.18 504.489 1253.78 505.267 1253.14 505.814C1252.49 506.36 1251.66 506.627 1250.82 506.558C1249.98 506.489 1249.2 506.089 1248.66 505.444C1248.11 504.799 1247.84 503.966 1247.91 503.127C1247.98 502.288 1248.38 501.511 1249.03 500.964C1249.67 500.418 1250.5 500.151 1251.34 500.22ZM1252.66 534.448C1253.5 534.517 1254.28 534.917 1254.82 535.562C1255.37 536.207 1255.64 537.04 1255.57 537.879C1255.5 538.718 1255.1 539.495 1254.45 540.042C1253.81 540.588 1252.98 540.855 1252.14 540.786C1251.3 540.717 1250.52 540.317 1249.97 539.672C1249.43 539.027 1249.16 538.194 1249.23 537.355C1249.3 536.517 1249.7 535.739 1250.34 535.192C1250.99 534.646 1251.82 534.379 1252.66 534.448ZM1218.76 446.861C1219.6 446.93 1220.38 447.33 1220.92 447.975C1221.47 448.62 1221.74 449.453 1221.67 450.292C1221.6 451.13 1221.2 451.908 1220.55 452.455C1219.91 453.001 1219.08 453.268 1218.24 453.199C1217.4 453.13 1216.62 452.73 1216.07 452.085C1215.53 451.44 1215.26 450.607 1215.33 449.768C1215.4 448.929 1215.8 448.151 1216.44 447.605C1217.09 447.058 1217.92 446.791 1218.76 446.861ZM1205.99 477.92C1206.83 477.989 1207.61 478.389 1208.15 479.034C1208.7 479.679 1208.97 480.512 1208.9 481.35C1208.83 482.189 1208.43 482.967 1207.78 483.513C1207.14 484.06 1206.31 484.327 1205.47 484.258C1204.63 484.188 1203.85 483.788 1203.3 483.143C1202.76 482.499 1202.49 481.666 1202.56 480.827C1202.63 479.988 1203.03 479.21 1203.67 478.664C1204.32 478.117 1205.15 477.85 1205.99 477.92ZM1252.93 477.076C1253.77 477.145 1254.55 477.545 1255.1 478.19C1255.64 478.835 1255.91 479.668 1255.84 480.506C1255.77 481.345 1255.37 482.123 1254.73 482.67C1254.08 483.216 1253.25 483.483 1252.41 483.414C1251.57 483.344 1250.79 482.944 1250.25 482.299C1249.7 481.655 1249.43 480.822 1249.5 479.983C1249.57 479.144 1249.97 478.366 1250.62 477.82C1251.26 477.273 1252.09 477.006 1252.93 477.076ZM1239.15 393.035C1239.98 393.105 1240.76 393.505 1241.31 394.15C1241.86 394.794 1242.12 395.627 1242.05 396.466C1241.98 397.305 1241.58 398.083 1240.94 398.629C1240.29 399.176 1239.46 399.443 1238.62 399.373C1237.78 399.304 1237.01 398.904 1236.46 398.259C1235.91 397.614 1235.65 396.781 1235.72 395.943C1235.78 395.104 1236.18 394.326 1236.83 393.78C1237.47 393.233 1238.31 392.966 1239.15 393.035ZM1229.48 401.996C1230.32 402.065 1231.09 402.465 1231.64 403.11C1232.19 403.755 1232.45 404.588 1232.38 405.427C1232.31 406.266 1231.91 407.043 1231.27 407.59C1230.63 408.136 1229.79 408.403 1228.95 408.334C1228.11 408.265 1227.34 407.865 1226.79 407.22C1226.24 406.575 1225.98 405.742 1226.05 404.903C1226.12 404.064 1226.52 403.287 1227.16 402.74C1227.81 402.194 1228.64 401.927 1229.48 401.996ZM1194.65 507.067C1195.49 507.137 1196.27 507.537 1196.82 508.182C1197.36 508.826 1197.63 509.659 1197.56 510.498C1197.49 511.337 1197.09 512.115 1196.45 512.661C1195.8 513.208 1194.97 513.475 1194.13 513.405C1193.29 513.336 1192.51 512.936 1191.97 512.291C1191.42 511.646 1191.15 510.813 1191.22 509.975C1191.29 509.136 1191.69 508.358 1192.34 507.811C1192.98 507.265 1193.81 506.998 1194.65 507.067ZM1148.28 473.537C1149.12 473.606 1149.9 474.006 1150.44 474.651C1150.99 475.296 1151.26 476.129 1151.19 476.968C1151.12 477.806 1150.72 478.584 1150.07 479.131C1149.43 479.677 1148.6 479.944 1147.76 479.875C1146.92 479.806 1146.14 479.406 1145.59 478.761C1145.05 478.116 1144.78 477.283 1144.85 476.444C1144.92 475.605 1145.32 474.827 1145.96 474.281C1146.61 473.734 1147.44 473.467 1148.28 473.537ZM1172.18 533.031C1173.02 533.1 1173.8 533.5 1174.35 534.145C1174.89 534.79 1175.16 535.623 1175.09 536.462C1175.02 537.3 1174.62 538.078 1173.98 538.625C1173.33 539.171 1172.5 539.438 1171.66 539.369C1170.82 539.3 1170.04 538.9 1169.5 538.255C1168.95 537.61 1168.68 536.777 1168.75 535.938C1168.82 535.099 1169.22 534.321 1169.87 533.775C1170.51 533.228 1171.35 532.961 1172.18 533.031ZM1197.45 361.216C1198.29 361.285 1199.07 361.685 1199.62 362.33C1200.16 362.975 1200.43 363.808 1200.36 364.646C1200.29 365.485 1199.89 366.263 1199.25 366.81C1198.6 367.356 1197.77 367.623 1196.93 367.554C1196.09 367.485 1195.31 367.084 1194.77 366.44C1194.22 365.795 1193.95 364.962 1194.02 364.123C1194.09 363.284 1194.49 362.506 1195.14 361.96C1195.78 361.413 1196.62 361.146 1197.45 361.216ZM1104.08 321.937C1104.92 322.006 1105.7 322.406 1106.25 323.051C1106.79 323.696 1107.06 324.529 1106.99 325.368C1106.92 326.206 1106.52 326.984 1105.88 327.531C1105.23 328.077 1104.4 328.344 1103.56 328.275C1102.72 328.206 1101.94 327.806 1101.4 327.161C1100.85 326.516 1100.58 325.683 1100.65 324.844C1100.72 324.005 1101.12 323.227 1101.77 322.681C1102.41 322.134 1103.25 321.867 1104.08 321.937ZM1155.09 380.037C1155.93 380.106 1156.7 380.506 1157.25 381.151C1157.8 381.796 1158.06 382.629 1157.99 383.468C1157.93 384.307 1157.53 385.084 1156.88 385.631C1156.24 386.177 1155.4 386.444 1154.56 386.375C1153.72 386.306 1152.95 385.906 1152.4 385.261C1151.85 384.616 1151.59 383.783 1151.66 382.944C1151.73 382.106 1152.13 381.328 1152.77 380.781C1153.42 380.235 1154.25 379.968 1155.09 380.037ZM1105.74 359.763C1106.58 359.832 1107.36 360.232 1107.91 360.877C1108.45 361.522 1108.72 362.355 1108.65 363.194C1108.58 364.032 1108.18 364.81 1107.54 365.357C1106.89 365.903 1106.06 366.17 1105.22 366.101C1104.38 366.032 1103.6 365.632 1103.06 364.987C1102.51 364.342 1102.24 363.509 1102.31 362.67C1102.38 361.831 1102.78 361.054 1103.43 360.507C1104.07 359.961 1104.9 359.694 1105.74 359.763ZM1170.32 456.702C1171.16 456.771 1171.93 457.171 1172.48 457.816C1173.03 458.461 1173.29 459.294 1173.22 460.133C1173.16 460.971 1172.76 461.749 1172.11 462.296C1171.47 462.842 1170.63 463.109 1169.79 463.04C1168.96 462.971 1168.18 462.571 1167.63 461.926C1167.08 461.281 1166.82 460.448 1166.89 459.609C1166.96 458.77 1167.36 457.993 1168 457.446C1168.65 456.9 1169.48 456.633 1170.32 456.702ZM1198.77 395.439C1199.61 395.508 1200.39 395.908 1200.94 396.553C1201.48 397.198 1201.75 398.031 1201.68 398.87C1201.61 399.709 1201.21 400.486 1200.57 401.033C1199.92 401.579 1199.09 401.847 1198.25 401.777C1197.41 401.708 1196.63 401.308 1196.09 400.663C1195.54 400.018 1195.27 399.185 1195.34 398.346C1195.41 397.508 1195.81 396.73 1196.46 396.183C1197.1 395.637 1197.93 395.37 1198.77 395.439ZM1151.27 436.316C1152.11 436.385 1152.89 436.785 1153.44 437.43C1153.98 438.075 1154.25 438.908 1154.18 439.746C1154.11 440.585 1153.71 441.363 1153.07 441.909C1152.42 442.456 1151.59 442.723 1150.75 442.654C1149.91 442.584 1149.13 442.184 1148.59 441.539C1148.04 440.895 1147.77 440.062 1147.84 439.223C1147.91 438.384 1148.31 437.606 1148.96 437.06C1149.6 436.513 1150.43 436.246 1151.27 436.316ZM1115.97 409.644C1116.04 408.805 1116.44 408.028 1117.08 407.481C1117.73 406.935 1118.56 406.667 1119.4 406.737C1120.24 406.806 1121.02 407.206 1121.56 407.851C1122.11 408.496 1122.38 409.329 1122.31 410.168C1122.24 411.006 1121.84 411.784 1121.19 412.331C1120.55 412.877 1119.72 413.144 1118.88 413.075C1118.04 413.006 1117.26 412.606 1116.71 411.961C1116.17 411.316 1115.9 410.483 1115.97 409.644ZM1123.01 486.084C1123.85 486.153 1124.63 486.553 1125.17 487.198C1125.72 487.843 1125.99 488.676 1125.92 489.514C1125.85 490.353 1125.45 491.131 1124.8 491.677C1124.16 492.224 1123.32 492.491 1122.49 492.422C1121.65 492.352 1120.87 491.952 1120.32 491.307C1119.78 490.663 1119.51 489.83 1119.58 488.991C1119.65 488.152 1120.05 487.374 1120.69 486.828C1121.34 486.281 1122.17 486.014 1123.01 486.084ZM1080.68 364.069C1081.52 364.138 1082.29 364.539 1082.84 365.183C1083.39 365.828 1083.65 366.661 1083.58 367.5C1083.52 368.339 1083.12 369.117 1082.47 369.663C1081.83 370.21 1080.99 370.477 1080.15 370.407C1079.32 370.338 1078.54 369.938 1077.99 369.293C1077.44 368.648 1077.18 367.815 1077.25 366.976C1077.32 366.138 1077.72 365.36 1078.36 364.813C1079.01 364.267 1079.84 364 1080.68 364.069ZM1101.67 568.34C1102.51 568.41 1103.28 568.81 1103.83 569.455C1104.38 570.099 1104.64 570.932 1104.57 571.771C1104.51 572.61 1104.11 573.388 1103.46 573.934C1102.82 574.481 1101.98 574.748 1101.14 574.678C1100.3 574.609 1099.53 574.209 1098.98 573.564C1098.43 572.919 1098.17 572.086 1098.24 571.248C1098.31 570.409 1098.71 569.631 1099.35 569.085C1100 568.538 1100.83 568.271 1101.67 568.34ZM1036.89 392.34C1037.73 392.41 1038.5 392.81 1039.05 393.455C1039.6 394.099 1039.86 394.932 1039.79 395.771C1039.72 396.61 1039.32 397.388 1038.68 397.934C1038.04 398.481 1037.2 398.748 1036.36 398.678C1035.52 398.609 1034.75 398.209 1034.2 397.564C1033.65 396.919 1033.39 396.086 1033.46 395.248C1033.53 394.409 1033.93 393.631 1034.57 393.085C1035.22 392.538 1036.05 392.271 1036.89 392.34ZM1076.95 512.416C1077.79 512.485 1078.57 512.885 1079.11 513.53C1079.66 514.175 1079.93 515.008 1079.86 515.847C1079.79 516.686 1079.39 517.463 1078.74 518.01C1078.1 518.556 1077.27 518.824 1076.43 518.754C1075.59 518.685 1074.81 518.285 1074.26 517.64C1073.72 516.995 1073.45 516.162 1073.52 515.323C1073.59 514.485 1073.99 513.707 1074.63 513.16C1075.28 512.614 1076.11 512.347 1076.95 512.416ZM1068.65 416.968C1069.49 417.037 1070.27 417.437 1070.81 418.082C1071.36 418.727 1071.63 419.56 1071.56 420.399C1071.49 421.238 1071.09 422.015 1070.44 422.562C1069.8 423.108 1068.97 423.375 1068.13 423.306C1067.29 423.237 1066.51 422.837 1065.96 422.192C1065.42 421.547 1065.15 420.714 1065.22 419.875C1065.29 419.037 1065.69 418.259 1066.33 417.712C1066.98 417.166 1067.81 416.899 1068.65 416.968ZM1036.61 449.712C1037.45 449.782 1038.23 450.182 1038.77 450.827C1039.32 451.472 1039.59 452.304 1039.52 453.143C1039.45 453.982 1039.05 454.76 1038.4 455.306C1037.76 455.853 1036.93 456.12 1036.09 456.051C1035.25 455.981 1034.47 455.581 1033.92 454.936C1033.38 454.291 1033.11 453.458 1033.18 452.62C1033.25 451.781 1033.65 451.003 1034.29 450.457C1034.94 449.91 1035.77 449.643 1036.61 449.712ZM1035.91 590.397C1036.75 590.466 1037.53 590.867 1038.07 591.511C1038.62 592.156 1038.89 592.989 1038.82 593.828C1038.75 594.667 1038.35 595.445 1037.7 595.991C1037.06 596.538 1036.23 596.805 1035.39 596.735C1034.55 596.666 1033.77 596.266 1033.22 595.621C1032.68 594.976 1032.41 594.143 1032.48 593.305C1032.55 592.466 1032.95 591.688 1033.59 591.141C1034.24 590.595 1035.07 590.328 1035.91 590.397ZM971.69 502.253C972.528 502.323 973.306 502.723 973.853 503.368C974.399 504.013 974.666 504.846 974.597 505.684C974.528 506.523 974.128 507.301 973.483 507.847C972.838 508.394 972.005 508.661 971.166 508.592C970.327 508.522 969.55 508.122 969.003 507.477C968.457 506.833 968.19 506 968.259 505.161C968.328 504.322 968.728 503.544 969.373 502.998C970.018 502.451 970.851 502.184 971.69 502.253ZM1012.32 400.196C1011.49 400.126 1010.71 399.726 1010.16 399.081C1009.61 398.436 1009.35 397.603 1009.42 396.765C1009.49 395.926 1009.89 395.148 1010.53 394.602C1011.18 394.055 1012.01 393.788 1012.85 393.857C1013.69 393.927 1014.46 394.327 1015.01 394.972C1015.56 395.616 1015.82 396.449 1015.76 397.288C1015.69 398.127 1015.29 398.905 1014.64 399.451C1014 399.998 1013.16 400.265 1012.32 400.196ZM993.419 602.064C994.258 602.133 995.036 602.533 995.582 603.178C996.129 603.823 996.396 604.656 996.327 605.495C996.257 606.334 995.857 607.111 995.212 607.658C994.567 608.204 993.734 608.471 992.896 608.402C992.057 608.333 991.279 607.933 990.733 607.288C990.186 606.643 989.919 605.81 989.988 604.971C990.058 604.133 990.458 603.355 991.103 602.808C991.748 602.262 992.581 601.995 993.419 602.064ZM1041.49 526.472C1040.94 525.827 1040.67 524.994 1040.74 524.156C1040.81 523.317 1041.21 522.539 1041.86 521.993C1042.5 521.446 1043.34 521.179 1044.17 521.248C1045.01 521.318 1045.79 521.718 1046.34 522.363C1046.88 523.007 1047.15 523.84 1047.08 524.679C1047.01 525.518 1046.61 526.296 1045.97 526.842C1045.32 527.389 1044.49 527.656 1043.65 527.586C1042.81 527.517 1042.03 527.117 1041.49 526.472ZM1001.22 531.735C1001.29 530.896 1001.69 530.118 1002.33 529.572C1002.98 529.025 1003.81 528.758 1004.65 528.827C1005.49 528.897 1006.27 529.297 1006.81 529.942C1007.36 530.587 1007.63 531.419 1007.56 532.258C1007.49 533.097 1007.09 533.875 1006.44 534.421C1005.8 534.968 1004.97 535.235 1004.13 535.166C1003.29 535.096 1002.51 534.696 1001.96 534.051C1001.42 533.406 1001.15 532.573 1001.22 531.735ZM1004.59 408.932C1005.43 409.001 1006.2 409.401 1006.75 410.046C1007.3 410.691 1007.56 411.524 1007.5 412.363C1007.43 413.202 1007.03 413.979 1006.38 414.526C1005.74 415.072 1004.9 415.34 1004.06 415.27C1003.23 415.201 1002.45 414.801 1001.9 414.156C1001.35 413.511 1001.09 412.678 1001.16 411.839C1001.23 411.001 1001.63 410.223 1002.27 409.676C1002.92 409.13 1003.75 408.863 1004.59 408.932ZM974.375 581.678C975.214 581.747 975.992 582.147 976.538 582.792C977.085 583.437 977.352 584.27 977.283 585.108C977.213 585.947 976.813 586.725 976.168 587.272C975.523 587.818 974.691 588.085 973.852 588.016C973.013 587.947 972.235 587.546 971.689 586.901C971.142 586.257 970.875 585.424 970.944 584.585C971.014 583.746 971.414 582.968 972.059 582.422C972.704 581.875 973.537 581.608 974.375 581.678ZM947.732 483.203C947.186 482.558 946.919 481.725 946.988 480.886C947.057 480.048 947.458 479.27 948.103 478.723C948.747 478.177 949.58 477.91 950.419 477.979C951.258 478.048 952.036 478.448 952.582 479.093C953.129 479.738 953.396 480.571 953.326 481.41C953.257 482.249 952.857 483.027 952.212 483.573C951.567 484.12 950.734 484.387 949.896 484.317C949.057 484.248 948.279 483.848 947.732 483.203ZM979.189 380.555C980.028 380.624 980.806 381.024 981.352 381.669C981.899 382.314 982.166 383.147 982.096 383.986C982.027 384.825 981.627 385.602 980.982 386.149C980.337 386.695 979.504 386.962 978.666 386.893C977.827 386.824 977.049 386.424 976.503 385.779C975.956 385.134 975.689 384.301 975.758 383.462C975.828 382.624 976.228 381.846 976.873 381.299C977.517 380.753 978.35 380.486 979.189 380.555ZM958.642 424.43C959.287 423.884 960.12 423.617 960.959 423.686C961.798 423.755 962.575 424.155 963.122 424.8C963.668 425.445 963.935 426.278 963.866 427.117C963.797 427.955 963.397 428.733 962.752 429.28C962.107 429.826 961.274 430.093 960.435 430.024C959.597 429.955 958.819 429.555 958.272 428.91C957.726 428.265 957.459 427.432 957.528 426.593C957.597 425.754 957.997 424.977 958.642 424.43ZM994.919 417.883C995.758 417.952 996.536 418.353 997.082 418.997C997.629 419.642 997.896 420.475 997.827 421.314C997.757 422.153 997.357 422.931 996.712 423.477C996.067 424.024 995.234 424.291 994.396 424.221C993.557 424.152 992.779 423.752 992.233 423.107C991.686 422.462 991.419 421.629 991.488 420.79C991.558 419.952 991.958 419.174 992.603 418.627C993.248 418.081 994.081 417.814 994.919 417.883ZM970.489 409.095C970.625 409.476 970.688 409.879 970.673 410.286C970.644 411.104 970.297 411.877 969.713 412.447C969.421 412.73 969.081 412.956 968.703 413.108C968.331 413.264 967.926 413.341 967.523 413.346L967.759 407.003C968.574 407.07 969.334 407.45 969.874 408.061C970.141 408.366 970.352 408.714 970.488 409.1L970.489 409.095ZM965.072 412.222C964.526 411.577 964.259 410.744 964.328 409.906C964.397 409.067 964.798 408.289 965.442 407.743C966.087 407.196 966.92 406.929 967.759 406.998L967.236 413.332C966.397 413.263 965.619 412.862 965.073 412.218L965.072 412.222ZM933.928 519.344C934.766 519.413 935.544 519.813 936.091 520.458C936.637 521.103 936.904 521.936 936.835 522.775C936.766 523.614 936.366 524.391 935.721 524.938C935.076 525.484 934.243 525.752 933.404 525.682C932.565 525.613 931.788 525.213 931.241 524.568C930.695 523.923 930.427 523.09 930.497 522.251C930.566 521.413 930.966 520.635 931.611 520.088C932.256 519.542 933.089 519.275 933.928 519.344ZM940.717 568.37C941.556 568.44 942.334 568.84 942.88 569.485C943.427 570.13 943.694 570.963 943.624 571.801C943.555 572.64 943.155 573.418 942.51 573.964C941.865 574.511 941.032 574.778 940.194 574.709C939.355 574.639 938.577 574.239 938.03 573.594C937.484 572.949 937.217 572.117 937.286 571.278C937.355 570.439 937.756 569.661 938.4 569.115C939.045 568.568 939.878 568.301 940.717 568.37ZM878.307 532.604C879.146 532.673 879.923 533.073 880.47 533.718C881.016 534.363 881.283 535.196 881.214 536.034C881.145 536.873 880.745 537.651 880.1 538.198C879.455 538.744 878.622 539.011 877.783 538.942C876.944 538.873 876.167 538.472 875.62 537.828C875.074 537.183 874.807 536.35 874.876 535.511C874.945 534.672 875.345 533.894 875.99 533.348C876.635 532.801 877.468 532.534 878.307 532.604ZM906.224 491.866C907.062 491.935 907.84 492.335 908.387 492.98C908.933 493.625 909.2 494.458 909.131 495.297C909.062 496.135 908.661 496.913 908.017 497.46C907.372 498.006 906.539 498.273 905.7 498.204C904.861 498.135 904.083 497.734 903.537 497.09C902.99 496.445 902.723 495.612 902.793 494.773C902.862 493.934 903.262 493.156 903.907 492.61C904.552 492.063 905.385 491.796 906.224 491.866ZM879.202 382.818C880.04 382.888 880.818 383.288 881.365 383.933C881.911 384.578 882.178 385.411 882.109 386.249C882.04 387.088 881.64 387.866 880.995 388.412C880.35 388.959 879.517 389.226 878.678 389.157C877.839 389.087 877.062 388.687 876.515 388.042C875.969 387.397 875.702 386.564 875.771 385.726C875.84 384.887 876.24 384.109 876.885 383.563C877.53 383.016 878.363 382.749 879.202 382.818ZM831.662 494.939C832.306 494.392 833.139 494.125 833.978 494.194C834.817 494.264 835.595 494.664 836.141 495.309C836.688 495.953 836.955 496.786 836.885 497.625C836.816 498.464 836.416 499.242 835.771 499.788C835.126 500.335 834.293 500.602 833.455 500.532C832.616 500.463 831.838 500.063 831.291 499.418C830.745 498.773 830.478 497.94 830.547 497.102C830.616 496.263 831.017 495.485 831.662 494.939ZM916.308 308.087C915.469 308.018 914.691 307.617 914.145 306.973C913.598 306.328 913.331 305.495 913.4 304.656C913.47 303.817 913.87 303.039 914.515 302.493C915.16 301.946 915.992 301.679 916.831 301.749C917.67 301.818 918.448 302.218 918.994 302.863C919.541 303.508 919.808 304.341 919.739 305.18C919.669 306.018 919.269 306.796 918.624 307.343C917.979 307.889 917.146 308.156 916.308 308.087ZM903.922 438.753C904.761 438.822 905.539 439.222 906.085 439.867C906.632 440.512 906.899 441.345 906.829 442.183C906.76 443.022 906.36 443.8 905.715 444.346C905.07 444.893 904.237 445.16 903.398 445.091C902.56 445.021 901.782 444.621 901.235 443.976C900.689 443.332 900.422 442.499 900.491 441.66C900.56 440.821 900.961 440.043 901.605 439.497C902.25 438.95 903.083 438.683 903.922 438.753ZM959.631 366.508C958.792 366.438 958.015 366.038 957.468 365.393C956.922 364.748 956.655 363.915 956.724 363.077C956.793 362.238 957.193 361.46 957.838 360.914C958.483 360.367 959.316 360.1 960.155 360.169C960.993 360.239 961.771 360.639 962.318 361.284C962.864 361.929 963.131 362.761 963.062 363.6C962.993 364.439 962.593 365.217 961.948 365.763C961.303 366.31 960.47 366.577 959.631 366.508ZM936.714 385.343C937.553 385.412 938.331 385.812 938.877 386.457C939.424 387.102 939.691 387.935 939.622 388.773C939.552 389.612 939.152 390.39 938.507 390.936C937.862 391.483 937.03 391.75 936.191 391.681C935.352 391.611 934.574 391.211 934.028 390.566C933.481 389.922 933.214 389.089 933.283 388.25C933.353 387.411 933.753 386.633 934.398 386.087C935.043 385.54 935.876 385.273 936.714 385.343ZM1514.45 450.508C1515.28 450.577 1516.06 450.977 1516.61 451.622C1517.15 452.267 1517.42 453.1 1517.35 453.939C1517.28 454.777 1516.88 455.555 1516.24 456.102C1515.59 456.648 1514.76 456.915 1513.92 456.846C1513.08 456.777 1512.31 456.377 1511.76 455.732C1511.21 455.087 1510.94 454.254 1511.01 453.415C1511.08 452.576 1511.48 451.799 1512.13 451.252C1512.77 450.706 1513.61 450.439 1514.45 450.508ZM1552.09 387.783C1552.93 387.852 1553.71 388.252 1554.26 388.897C1554.8 389.542 1555.07 390.375 1555 391.214C1554.93 392.052 1554.53 392.83 1553.89 393.377C1553.24 393.923 1552.41 394.19 1551.57 394.121C1550.73 394.052 1549.95 393.652 1549.41 393.007C1548.86 392.362 1548.59 391.529 1548.66 390.69C1548.73 389.851 1549.13 389.074 1549.78 388.527C1550.42 387.981 1551.26 387.714 1552.09 387.783ZM1495.07 365.714C1495.91 365.783 1496.69 366.183 1497.24 366.828C1497.78 367.473 1498.05 368.306 1497.98 369.144C1497.91 369.983 1497.51 370.761 1496.87 371.307C1496.22 371.854 1495.39 372.121 1494.55 372.052C1493.71 371.982 1492.93 371.582 1492.39 370.937C1491.84 370.293 1491.57 369.46 1491.64 368.621C1491.71 367.782 1492.11 367.004 1492.76 366.458C1493.4 365.911 1494.24 365.644 1495.07 365.714ZM1582.82 471.716C1583.66 471.785 1584.43 472.185 1584.98 472.83C1585.53 473.475 1585.79 474.308 1585.73 475.146C1585.66 475.985 1585.26 476.763 1584.61 477.309C1583.97 477.856 1583.13 478.123 1582.29 478.054C1581.46 477.984 1580.68 477.584 1580.13 476.939C1579.58 476.295 1579.32 475.462 1579.39 474.623C1579.46 473.784 1579.86 473.006 1580.5 472.46C1581.15 471.913 1581.98 471.646 1582.82 471.716ZM1480.6 458.57C1480.74 458.946 1480.8 459.345 1480.79 459.747C1480.77 460.557 1480.45 461.331 1479.88 461.908C1479.31 462.485 1478.55 462.825 1477.73 462.853L1477.87 456.512C1478.68 456.579 1479.43 456.953 1479.97 457.554C1480.24 457.855 1480.45 458.198 1480.59 458.574L1480.6 458.57ZM1470.18 440.542C1471.02 440.611 1471.8 441.012 1472.34 441.656C1472.89 442.301 1473.16 443.134 1473.09 443.973C1473.02 444.812 1472.62 445.59 1471.97 446.136C1471.33 446.683 1470.5 446.95 1469.66 446.88C1468.82 446.811 1468.04 446.411 1467.49 445.766C1466.95 445.121 1466.68 444.288 1466.75 443.45C1466.82 442.611 1467.22 441.833 1467.86 441.286C1468.51 440.74 1469.34 440.473 1470.18 440.542ZM1475.57 457.253C1476.21 456.706 1477.04 456.439 1477.88 456.508L1477.36 462.842C1476.52 462.772 1475.74 462.372 1475.2 461.727C1474.65 461.083 1474.38 460.25 1474.45 459.411C1474.52 458.572 1474.92 457.794 1475.57 457.248L1475.57 457.253ZM1518.57 487.765C1518.64 488.51 1518.44 489.256 1518.02 489.869C1517.59 490.481 1516.96 490.923 1516.23 491.118L1515.67 484.882C1516.42 484.944 1517.12 485.266 1517.65 485.794C1518.19 486.323 1518.51 487.021 1518.58 487.766L1518.57 487.765ZM1515.15 491.215L1516.23 491.118C1515.88 491.213 1515.51 491.245 1515.15 491.215ZM1515.67 484.882L1515.15 491.215C1514.31 491.146 1513.53 490.746 1512.98 490.101C1512.44 489.456 1512.17 488.623 1512.24 487.784C1512.31 486.946 1512.71 486.168 1513.35 485.621C1514 485.075 1514.83 484.808 1515.67 484.877L1515.67 484.882ZM1430.61 428.771C1431.45 428.841 1432.23 429.241 1432.77 429.886C1433.32 430.531 1433.59 431.364 1433.52 432.202C1433.45 433.041 1433.05 433.819 1432.4 434.365C1431.76 434.912 1430.92 435.179 1430.09 435.11C1429.25 435.04 1428.47 434.64 1427.92 433.995C1427.38 433.35 1427.11 432.517 1427.18 431.679C1427.25 430.84 1427.65 430.062 1428.29 429.516C1428.94 428.969 1429.77 428.702 1430.61 428.771ZM1431.63 567.506C1432.47 567.576 1433.25 567.976 1433.79 568.621C1434.34 569.266 1434.61 570.099 1434.54 570.937C1434.47 571.776 1434.07 572.554 1433.42 573.1C1432.78 573.647 1431.94 573.914 1431.11 573.845C1430.27 573.775 1429.49 573.375 1428.94 572.73C1428.4 572.085 1428.13 571.253 1428.2 570.414C1428.27 569.575 1428.67 568.797 1429.31 568.251C1429.96 567.704 1430.79 567.437 1431.63 567.506ZM1449.77 481.828C1450.61 481.897 1451.39 482.298 1451.93 482.942C1452.48 483.587 1452.75 484.42 1452.68 485.259C1452.61 486.098 1452.21 486.876 1451.56 487.422C1450.92 487.969 1450.09 488.236 1449.25 488.166C1448.41 488.097 1447.63 487.697 1447.08 487.052C1446.54 486.407 1446.27 485.574 1446.34 484.735C1446.41 483.897 1446.81 483.119 1447.45 482.572C1448.1 482.026 1448.93 481.759 1449.77 481.828ZM1396.33 512.296C1397.17 512.366 1397.95 512.766 1398.49 513.411C1399.04 514.056 1399.31 514.889 1399.24 515.727C1399.17 516.566 1398.77 517.344 1398.12 517.89C1397.48 518.437 1396.65 518.704 1395.81 518.635C1394.97 518.565 1394.19 518.165 1393.65 517.52C1393.1 516.875 1392.83 516.042 1392.9 515.204C1392.97 514.365 1393.37 513.587 1394.02 513.041C1394.66 512.494 1395.49 512.227 1396.33 512.296ZM1465.93 530.827C1466.77 530.896 1467.54 531.296 1468.09 531.941C1468.64 532.586 1468.9 533.419 1468.84 534.258C1468.77 535.097 1468.37 535.875 1467.72 536.421C1467.08 536.968 1466.24 537.235 1465.4 537.165C1464.57 537.096 1463.79 536.696 1463.24 536.051C1462.7 535.406 1462.43 534.573 1462.5 533.734C1462.57 532.896 1462.97 532.118 1463.61 531.571C1464.26 531.025 1465.09 530.758 1465.93 530.827ZM1362.9 445.61C1363.74 445.679 1364.52 446.079 1365.06 446.724C1365.61 447.369 1365.88 448.202 1365.81 449.041C1365.74 449.879 1365.34 450.657 1364.69 451.204C1364.05 451.75 1363.21 452.017 1362.38 451.948C1361.54 451.879 1360.76 451.479 1360.21 450.834C1359.67 450.189 1359.4 449.356 1359.47 448.517C1359.54 447.678 1359.94 446.901 1360.58 446.354C1361.23 445.808 1362.06 445.54 1362.9 445.61ZM1377.43 419.446C1376.59 419.377 1375.81 418.977 1375.27 418.332C1374.72 417.687 1374.45 416.854 1374.52 416.016C1374.59 415.177 1374.99 414.399 1375.64 413.852C1376.28 413.306 1377.11 413.039 1377.95 413.108C1378.79 413.177 1379.57 413.578 1380.12 414.222C1380.66 414.867 1380.93 415.7 1380.86 416.539C1380.79 417.378 1380.39 418.156 1379.75 418.702C1379.1 419.249 1378.27 419.516 1377.43 419.446ZM1386.19 465.229C1387.03 465.298 1387.81 465.698 1388.35 466.343C1388.9 466.988 1389.17 467.821 1389.1 468.66C1389.03 469.499 1388.63 470.276 1387.98 470.823C1387.34 471.369 1386.51 471.636 1385.67 471.567C1384.83 471.498 1384.05 471.098 1383.5 470.453C1382.96 469.808 1382.69 468.975 1382.76 468.136C1382.83 467.298 1383.23 466.52 1383.87 465.973C1384.52 465.427 1385.35 465.16 1386.19 465.229Z" fill="url(#paint2_radial_0_404)"/>
</g>
<g style="mix-blend-mode:luminosity" opacity="0.35">
<path opacity="0.2" d="M-95.7043 -78.8876L-92.4174 -55.8452L-75.6452 -136.306L-138.306 -115.817L-95.7007 -78.8907L-95.7043 -78.8876ZM-192.667 -197.656L-142.475 -199.349L-215.874 -151.574L-192.663 -197.652L-192.667 -197.656ZM-317.129 -238.479L-260.328 -200.323L-283.765 -175.148L-317.132 -238.476L-317.129 -238.479ZM-182.641 -94.8903L-239.831 -100.505L-215.877 -151.577L-182.641 -94.8903ZM-116.506 60.6038L-122.685 112.085L-129.679 60.1061L-161.557 19.853L-80.0202 -9.08075L-116.509 60.6001L-116.506 60.6038ZM-161.554 19.8499L-156.436 -14.9009L-138.309 -26.9351L-161.551 19.8535L-161.554 19.8499ZM-180.04 -64.5523L-182.641 -94.8903L-138.306 -115.817L-142.509 -85.452L-180.036 -64.5554L-180.04 -64.5523ZM136.696 171.924L134.584 204.127L60.6266 215.174L136.696 171.924ZM186.995 83.1869L153.584 64.1817L91.4893 33.2982L178.703 18.8233L191.885 85.9679L190.943 113.85L186.995 83.1869ZM175.49 186.528L205.346 147.052L224.204 216.469L175.66 225.548L175.49 186.528ZM117.684 321.785L33.7622 352.527L78.7928 279.353L117.684 321.785ZM18.2446 76.3972L-36.9287 91.6171L-8.50307 67.4096L-46.2185 23.5105L-80.0171 -9.0771L-138.313 -26.932L-92.4174 -55.8452L-62.5275 -24.3258L-39.2633 -49.4671L-17.5944 10.9021L-10.9005 52.4777L18.2451 76.3905L18.2446 76.3972ZM-47.1144 67.8099L-99.4213 86.9501L-116.509 60.6069L-77.2111 36.4532L-80.0207 -9.07401L-53.9497 51.851L-35.9904 63.7385L-36.9323 91.6201L-47.118 67.813L-47.1144 67.8099ZM-177.517 27.5602L-213.657 -52.199L-180.037 -64.5419L-156.434 -14.8905L-177.514 27.5638L-177.517 27.5602ZM-36.9287 91.6171L-35.2915 135.066L-58.8424 177.948L-84.4089 205.875L-122.682 112.088L-79.4106 128.727L-36.925 91.614L-36.9287 91.6171ZM-215.874 -151.574L-156.538 -135.347L-142.475 -199.349L-138.306 -115.81L-215.874 -151.574ZM-239.828 -100.501L-259.495 -136.801L-253.656 -153.538L-239.828 -100.501ZM-354.733 -157.395L-283.762 -175.145L-259.499 -136.798L-354.733 -157.395ZM-253.656 -153.538L-260.325 -200.319L-192.667 -197.656L-241.28 -179.942L-253.659 -153.541L-253.656 -153.538ZM153.584 64.1884L132.172 129.838L98.8623 107.255L153.59 64.189L153.584 64.1884ZM134.587 204.137L175.66 225.554L228.407 274.99L139.743 264.758L134.587 204.137ZM132.168 129.841L190.943 113.856L205.346 147.059L136.699 171.934L132.172 129.838L132.168 129.841ZM60.6261 215.181L139.736 264.758L117.68 321.788L88.7481 235.084L60.6261 215.181ZM7.82232 163.712L98.8556 107.255L53.6354 163.199L7.82597 163.709L7.82232 163.712ZM53.6318 163.202L60.6261 215.181L49.7658 214.772L72.7789 242.787L45.357 252.702L47.4494 214.679L39.0471 201.723L7.81922 163.708L30.3682 188.337L53.6323 163.195L53.6318 163.202ZM30.9573 219.503L45.3601 252.706L44.4181 280.587L33.7616 352.534L-15.4712 197.492L12.8848 203.593L30.9635 219.51L30.9573 219.503ZM78.7891 279.356L44.4181 280.587L72.782 242.79L78.7891 279.356ZM23.7113 19.3954L-17.5986 10.9119L16.6479 8.43221L91.482 33.3043L69.426 90.3347L23.7082 19.3918L23.7113 19.3954ZM7.81868 163.715L-20.5287 181.574L-15.4743 197.488L-38.0699 192.629L-35.292 135.073L69.4322 90.342L7.8285 163.719L7.81868 163.715Z" fill="url(#paint3_radial_0_404)"/>
<path opacity="0.5" d="M228.582 275.079C228.566 275.111 228.544 275.137 228.515 275.155L228.508 275.161C228.483 275.176 228.458 275.184 228.428 275.185C228.421 275.184 228.411 275.18 228.401 275.183C228.401 275.183 228.394 275.189 228.391 275.185L139.881 264.973L117.882 321.856C117.882 321.856 117.871 321.865 117.863 321.871C117.851 321.894 117.836 321.913 117.814 321.931C117.803 321.941 117.796 321.947 117.785 321.956C117.778 321.962 117.77 321.969 117.763 321.975L33.8412 352.717C33.8412 352.717 33.8412 352.717 33.8375 352.72C33.8095 352.732 33.7752 352.735 33.7452 352.73C33.7452 352.73 33.7353 352.725 33.7286 352.725C33.7286 352.725 33.7286 352.725 33.7255 352.721C33.6856 352.711 33.6536 352.688 33.6252 352.662C33.6252 352.662 33.6221 352.658 33.619 352.655C33.5943 352.626 33.5836 352.591 33.5796 352.557C33.5734 352.549 33.5776 352.539 33.5782 352.533C33.5756 352.522 33.5731 352.512 33.5773 352.502L44.2353 280.579L45.1764 252.748L30.8141 219.63L12.8082 203.776L-38.0936 192.83C-38.0936 192.83 -38.1464 192.813 -38.1655 192.797C-38.1847 192.782 -38.197 192.768 -38.2125 192.749C-38.2125 192.749 -38.2156 192.746 -38.2187 192.742C-38.2218 192.738 -38.2243 192.728 -38.2274 192.724C-38.2367 192.714 -38.2386 192.696 -38.2443 192.682C-38.2468 192.672 -38.2494 192.662 -38.2482 192.648C-38.2513 192.644 -38.2539 192.634 -38.2497 192.624L-35.517 135.947L-58.6447 178.056C-58.6447 178.056 -58.663 178.072 -58.6672 178.081C-58.6708 178.085 -58.6714 178.091 -58.675 178.094L-84.2415 206.022C-84.2415 206.022 -84.2415 206.022 -84.2452 206.025C-84.2634 206.04 -84.2816 206.056 -84.2993 206.064C-84.3066 206.07 -84.317 206.073 -84.3274 206.076C-84.3347 206.082 -84.3451 206.084 -84.3555 206.087C-84.3555 206.087 -84.3622 206.086 -84.3689 206.086C-84.3793 206.088 -84.3892 206.084 -84.3995 206.087C-84.413 206.085 -84.4296 206.081 -84.4431 206.08C-84.4529 206.075 -84.4596 206.075 -84.4695 206.071C-84.486 206.066 -84.5021 206.054 -84.5113 206.043C-84.5144 206.04 -84.5175 206.036 -84.5243 206.036C-84.5243 206.036 -84.5273 206.032 -84.5304 206.028C-84.5459 206.01 -84.5583 205.995 -84.5701 205.974C-84.5701 205.974 -84.5732 205.97 -84.5763 205.967C-84.5763 205.967 -84.5763 205.967 -84.5794 205.963L-122.847 112.19L-122.853 112.183C-122.859 112.176 -122.858 112.162 -122.86 112.152C-122.863 112.148 -122.867 112.144 -122.869 112.134L-122.871 112.117L-129.85 60.2446L-177.617 27.7453C-177.617 27.7453 -177.623 27.738 -177.626 27.7343C-177.63 27.7307 -177.633 27.727 -177.639 27.7197C-177.642 27.7161 -177.645 27.7124 -177.651 27.7051C-177.654 27.7015 -177.661 27.6942 -177.664 27.6905C-177.67 27.6833 -177.676 27.676 -177.679 27.6723L-177.685 27.665L-213.826 -52.0941C-213.849 -52.1435 -213.85 -52.2047 -213.826 -52.257C-213.801 -52.3092 -213.76 -52.35 -213.708 -52.3694L-180.234 -64.6634L-182.808 -94.6801L-239.829 -100.281C-239.829 -100.281 -239.839 -100.285 -239.846 -100.286C-239.866 -100.287 -239.886 -100.296 -239.902 -100.307C-239.908 -100.314 -239.921 -100.316 -239.928 -100.323C-239.947 -100.338 -239.962 -100.356 -239.974 -100.378C-239.974 -100.378 -239.977 -100.381 -239.98 -100.385L-259.557 -136.511L-329.885 -101.27C-329.885 -101.27 -329.885 -101.27 -329.889 -101.267C-329.9 -101.257 -329.909 -101.262 -329.927 -101.26C-329.937 -101.257 -329.951 -101.251 -329.964 -101.253C-329.978 -101.254 -329.991 -101.255 -330.005 -101.256C-330.018 -101.257 -330.032 -101.258 -330.042 -101.262C-330.052 -101.266 -330.064 -101.274 -330.077 -101.282C-330.084 -101.289 -330.1 -101.294 -330.106 -101.302C-330.116 -101.312 -330.125 -101.323 -330.134 -101.334C-330.14 -101.342 -330.15 -101.353 -330.156 -101.36C-330.156 -101.36 -330.156 -101.36 -330.159 -101.364L-354.891 -157.286C-354.891 -157.286 -354.891 -157.286 -354.894 -157.29C-354.897 -157.293 -354.9 -157.297 -354.9 -157.304L-354.906 -157.311C-354.909 -157.315 -354.908 -157.328 -354.908 -157.335C-354.911 -157.339 -354.91 -157.352 -354.909 -157.359C-354.909 -157.359 -354.908 -157.372 -354.904 -157.375C-354.904 -157.375 -354.903 -157.389 -354.903 -157.396C-354.903 -157.396 -354.895 -157.402 -354.898 -157.412C-354.894 -157.415 -354.897 -157.426 -354.892 -157.435C-354.892 -157.435 -354.892 -157.435 -354.889 -157.439L-317.282 -238.518C-317.282 -238.518 -317.282 -238.518 -317.278 -238.521C-317.27 -238.541 -317.255 -238.56 -317.236 -238.576C-317.236 -238.576 -317.236 -238.576 -317.233 -238.579C-317.215 -238.594 -317.196 -238.61 -317.172 -238.618C-317.168 -238.621 -317.158 -238.624 -317.151 -238.623C-317.134 -238.625 -317.12 -238.631 -317.1 -238.629C-317.093 -238.628 -317.08 -238.627 -317.073 -238.627C-317.056 -238.622 -317.043 -238.621 -317.026 -238.616C-317.026 -238.616 -317.016 -238.612 -317.01 -238.611C-317.01 -238.611 -317.003 -238.604 -317 -238.6C-316.997 -238.597 -316.99 -238.596 -316.981 -238.592L-260.18 -200.436C-260.18 -200.436 -260.18 -200.436 -260.177 -200.433C-260.174 -200.429 -260.171 -200.425 -260.168 -200.422C-260.165 -200.418 -260.161 -200.414 -260.158 -200.411C-260.158 -200.411 -260.155 -200.407 -260.152 -200.403L-241.195 -180.122L-192.707 -197.792C-192.707 -197.792 -192.686 -197.79 -192.683 -197.793C-192.672 -197.796 -192.661 -197.805 -192.648 -197.804L-142.456 -199.497C-142.456 -199.497 -142.453 -199.493 -142.443 -199.495C-142.443 -199.495 -142.439 -199.499 -142.432 -199.498C-142.426 -199.497 -142.416 -199.493 -142.406 -199.489C-142.392 -199.488 -142.383 -199.484 -142.369 -199.483C-142.369 -199.483 -142.366 -199.479 -142.359 -199.478C-142.349 -199.474 -142.34 -199.463 -142.33 -199.459C-142.324 -199.452 -142.314 -199.454 -142.308 -199.447L-75.4749 -136.401C-75.4749 -136.401 -75.4657 -136.39 -75.4595 -136.383C-75.4471 -136.368 -75.4347 -136.353 -75.4296 -136.333L-39.0483 -49.4867C-39.0483 -49.4867 -39.0483 -49.4867 -39.0452 -49.4831L-39.0422 -49.4794L-17.4284 10.736L16.6645 8.26734C16.6682 8.26425 16.678 8.26845 16.6848 8.26901C16.6982 8.27012 16.7117 8.27123 16.7283 8.27599C16.7283 8.27599 16.7283 8.27597 16.7314 8.27962L91.5157 33.1375L178.681 18.6722C178.681 18.6722 178.695 18.6733 178.701 18.6739C178.725 18.6725 178.745 18.6741 178.769 18.6794C178.772 18.6831 178.782 18.6805 178.789 18.6811C178.789 18.6811 178.795 18.6884 178.798 18.692C178.801 18.6957 178.812 18.6931 178.815 18.6968C178.838 18.7088 178.857 18.724 178.872 18.7422C178.894 18.7678 178.908 18.7995 178.919 18.8343L192.101 85.9788C192.101 85.9788 192.106 86.0064 192.104 86.0266L191.163 113.857L205.546 147.014C205.554 147.039 205.562 147.063 205.56 147.09C205.56 147.09 205.559 147.104 205.555 147.107C205.553 147.127 205.552 147.147 205.543 147.167C205.543 147.167 205.543 147.167 205.539 147.177C205.535 147.18 205.528 147.186 205.525 147.189C205.517 147.195 205.516 147.209 205.509 147.215L175.79 186.512L224.313 216.332C224.313 216.332 224.332 216.354 224.338 216.361C224.344 216.369 224.351 216.369 224.357 216.376C224.357 216.376 224.36 216.38 224.363 216.384C224.385 216.409 224.396 216.437 224.401 216.465C224.401 216.465 224.403 216.475 224.4 216.478C224.4 216.478 224.403 216.482 224.406 216.486L228.612 274.973C228.616 275.007 228.607 275.033 228.594 275.063C228.594 275.063 228.594 275.063 228.593 275.069C228.593 275.069 228.586 275.076 228.582 275.079ZM204.768 147.48L137.286 171.932L175.422 186.285L204.771 147.477L204.768 147.48ZM-193.08 -197.293L-240.931 -179.856L-215.926 -151.938L-193.08 -197.293ZM-329.903 -101.756L-260.106 -136.729L-354.386 -157.119L-329.906 -101.76L-329.903 -101.756ZM31.0168 219.27L46.7681 214.667L13.7579 204.068L31.0204 219.267L31.0168 219.27ZM-156.313 -135.413L-138.533 -116.358L-142.597 -197.822L-156.31 -135.409L-156.313 -135.413ZM-95.4926 -78.8668L-92.3752 -57.0224L-76.4765 -133.301L-95.4926 -78.8668ZM-75.9704 -135.987L-137.899 -115.736L-95.7977 -79.2414L-75.9735 -135.991L-75.9704 -135.987ZM-95.8789 -78.7086L-141.527 -85.1065L-92.674 -56.2361L-95.8825 -78.7055L-95.8789 -78.7086ZM134.56 204.342L62.347 215.126L174.663 225.252L134.56 204.342ZM-161.138 19.4906L-80.6559 -9.06862L-138.197 -26.6917L-161.138 19.4906ZM-115.819 60.4228L-36.6969 63.4971L-77.2034 36.6846L-115.822 60.4191L-115.819 60.4228ZM-77.409 36.3385L-80.1661 -8.34298L-115.974 60.0402L-77.409 36.3385ZM-138.826 -26.3466L-156.243 -14.7832L-161.157 18.6103L-138.822 -26.3497L-138.826 -26.3466ZM-138.518 -27.0405L-142.601 -83.9261L-156.136 -15.3443L-138.514 -27.0435L-138.518 -27.0405ZM-138.128 -27.2899L-92.8011 -55.8463L-142.275 -85.08L-138.128 -27.2899ZM-137.822 -27.0035L-80.3005 -9.38882L-92.5382 -55.5362L-137.825 -27.0072L-137.822 -27.0035ZM-79.8982 -9.45409L-62.8183 -24.3429L-92.015 -55.1335L-79.9018 -9.451L-79.8982 -9.45409ZM-77.0163 36.1436L-46.5789 23.4334L-79.7769 -8.57895L-77.0163 36.1436ZM-76.7728 36.4825L-36.3113 63.2642L-46.3562 23.7774L-76.7728 36.4825ZM-36.0947 91.1666L17.5509 76.3707L-8.45377 67.6308L-36.0947 91.1666ZM-8.97558 67.5403L-35.785 63.959L-36.704 91.1504L-8.97196 67.5372L-8.97558 67.5403ZM88.3579 235.038L61.1174 215.761L72.8937 242.501L88.3579 235.038ZM60.5018 215.367L47.937 214.893L72.0945 241.699L60.4981 215.37L60.5018 215.367ZM60.4034 214.955L53.656 164.799L47.6965 214.476L60.4034 214.955ZM53.3664 163.784L30.6349 188.348L47.3277 214.093L53.3627 163.787L53.3664 163.784ZM53.1745 163.395L8.29192 163.896L30.3798 188.025L53.1745 163.395ZM8.56333 163.485L53.5512 162.982L97.9588 108.046L8.56642 163.488L8.56333 163.485ZM98.4724 107.247L69.4865 90.584L8.8084 162.857L98.4688 107.25L98.4724 107.247ZM60.7998 214.839L136.058 172.051L53.8855 163.413L60.8065 214.839L60.7998 214.839ZM61.6884 214.8L134.406 203.939L136.48 172.276L61.6884 214.8ZM61.3718 215.432L88.8143 234.852L173.624 225.556L61.3749 215.436L61.3718 215.432ZM73.0181 242.885L78.834 278.271L88.4715 235.431L73.0212 242.888L73.0181 242.885ZM72.6675 243.27L44.8449 280.344L78.5592 279.137L72.6644 243.266L72.6675 243.27ZM47.6405 215.156L45.5897 252.385L72.4347 242.677L47.6368 215.16L47.6405 215.156ZM30.3409 188.623L13.301 203.478L46.989 214.292L30.3476 188.623L30.3409 188.623ZM30.0926 188.3L8.11964 164.3L13.0491 203.158L30.0926 188.3ZM68.7399 90.8346L-34.8521 135.082L7.79865 163.418L68.7399 90.8346ZM68.827 90.3533L18.3225 76.6004L-34.4977 134.487L68.827 90.3533ZM17.6344 76.7575L-36.702 91.7443L-35.0888 134.537L17.6381 76.7544L17.6344 76.7575ZM-37.1125 91.4967L-36.1962 64.4204L-78.3704 127.543L-37.1094 91.5004L-37.1125 91.4967ZM-36.4834 64.1186L-99.1202 87.0394L-79.3651 128.293L-36.4865 64.1149L-36.4834 64.1186ZM-99.318 86.6804L-37.0065 63.8787L-116.102 60.8066L-99.3216 86.6835L-99.318 86.6804ZM-80.4155 -8.73331L-161.145 19.9107L-116.545 60.2545L-80.4186 -8.73696L-80.4155 -8.73331ZM-156.805 -13.6793L-177.051 27.0963L-161.715 19.6975L-156.802 -13.6757L-156.805 -13.6793ZM-142.774 -85.0769L-179.75 -64.4844L-156.494 -15.5604L-142.774 -85.0769ZM-62.5085 -24.6431L-39.6617 -49.3303L-91.8579 -55.599L-62.5085 -24.6431ZM-79.6937 -9.09459L-46.6588 22.755L-62.5992 -23.9958L-79.69 -9.09769L-79.6937 -9.09459ZM-35.8003 63.5268L-8.97743 67.1093L-45.7831 24.2758L-35.8003 63.5268ZM18.0561 76.0866L16.4938 9.35251L-8.20282 67.2613L18.0561 76.0866ZM18.4662 76.2153L68.994 89.9735L16.8959 9.12438L18.4662 76.2153ZM69.7063 90.2221L98.64 106.86L91.3915 34.1519L69.7063 90.2221ZM54.3298 162.673L131.773 129.775L98.9228 107.505L54.3298 162.673ZM132.084 129.499L153.202 64.7439L99.2241 107.224L132.084 129.499ZM132.583 129.282L191.538 85.98L153.723 64.4713L132.583 129.282ZM54.4605 163.063L136.488 171.686L132.016 130.114L54.4574 163.06L54.4605 163.063ZM134.835 203.801L174.971 186.529L136.907 172.203L134.835 203.801ZM135.082 204.137L175.478 225.2L175.31 186.825L135.079 204.133L135.082 204.137ZM89.41 235.199L139.725 264.479L175.168 225.796L89.41 235.199ZM79.0361 279.278L117.212 320.925L88.8128 235.819L79.0397 279.275L79.0361 279.278ZM78.4433 279.555L44.6238 280.764L34.1332 351.561L78.4433 279.555ZM72.2328 243.193L45.5837 252.829L44.6656 279.926L72.2328 243.193ZM47.2578 214.942L31.2598 219.616L45.226 251.816L47.2578 214.942ZM7.68328 164.036L-37.5177 192.511L12.6671 203.307L7.68328 164.036ZM7.47094 163.69L-35.0868 135.419L-37.8269 192.228L7.47094 163.69ZM-37.0957 92.0342L-78.9236 128.577L-35.485 134.816L-37.0957 92.0342ZM-59.0588 177.893L-79.2413 129.592L-84.1479 205.296L-59.0588 177.893ZM-58.793 177.467L-35.5888 135.212L-79.0642 128.965L-58.7961 177.464L-58.793 177.467ZM-99.4499 87.2938L-122.305 111.994L-79.7932 128.342L-99.4499 87.2938ZM-99.6528 86.9141L-116.346 61.1767L-122.384 111.478L-99.6528 86.9141ZM-159.845 21.636L-129.55 59.8961L-117.033 60.367L-159.845 21.636ZM-161.584 20.095L-177.084 27.5754L-130.635 59.1792L-161.584 20.095ZM-156.636 -14.9139L-179.782 -63.605L-177.309 26.7257L-156.636 -14.9072L-156.636 -14.9139ZM-142.671 -85.5909L-138.583 -115.137L-179.185 -65.2589L-142.671 -85.5909ZM-142.253 -85.6379L-96.33 -79.2038L-138.131 -115.432L-142.253 -85.6379ZM-156.479 -135.04L-182.054 -95.395L-138.615 -115.9L-156.479 -135.04ZM-156.829 -135.245L-215.418 -151.265L-182.605 -95.2911L-156.832 -135.242L-156.829 -135.245ZM-253.357 -153.34L-239.743 -101.118L-216.156 -151.41L-253.357 -153.34ZM-216.318 -151.824L-241.194 -179.596L-253.313 -153.747L-216.321 -151.828L-216.318 -151.824ZM-353.804 -157.431L-259.897 -137.125L-283.823 -174.936L-353.804 -157.431ZM-259.52 -137.288L-253.868 -153.484L-282.999 -174.393L-259.52 -137.288ZM-354.336 -157.719L-284.03 -175.306L-317.084 -238.041L-354.336 -157.719ZM-283.421 -175.201L-253.889 -154.005L-260.432 -199.89L-283.418 -175.198L-283.421 -175.201ZM-253.515 -154.266L-241.486 -179.925L-259.997 -199.732L-253.515 -154.266ZM-156.655 -135.624L-142.747 -198.93L-215.35 -151.673L-156.655 -135.624ZM-138.078 -116.11L-75.993 -136.413L-142.205 -198.875L-138.075 -116.106L-138.078 -116.11ZM-92.1335 -56.0424L-39.5476 -49.728L-75.5438 -135.647L-92.1335 -56.0424ZM-62.2557 -24.2932L-46.2909 22.5309L-39.4836 -48.8983L-62.2527 -24.2896L-62.2557 -24.2932ZM-8.77816 66.7084L-17.716 11.1805L-45.8467 23.5649L-8.77816 66.7084ZM-8.37387 66.6603L16.3695 8.6366L-17.3238 11.0736L-8.37387 66.6603ZM69.4235 89.8663L91.256 33.4079L17.1716 8.78406L69.4198 89.8694L69.4235 89.8663ZM99.0623 106.841L153.243 64.2011L91.7642 33.6228L99.0628 106.834L99.0623 106.841ZM153.897 64.0853L191.641 85.5542L178.649 19.3888L153.897 64.0853ZM191.706 86.3637L133.207 129.33L190.781 113.673L191.706 86.3637ZM190.343 114.214L132.426 129.961L136.888 171.441L190.343 114.214ZM175.899 225.282L223.685 216.345L175.733 186.874L175.899 225.282ZM224.053 216.691L176.126 225.654L228.199 274.457L224.053 216.691ZM175.706 225.816L140.196 264.575L227.815 274.714L175.67 225.84L175.706 225.816ZM139.524 264.818L89.1511 235.5L117.735 321.158L139.524 264.818ZM78.8618 279.664L34.2812 352.112L117.367 321.677L78.8613 279.671L78.8618 279.664ZM-84.52 204.954L-79.59 128.841L-122.283 112.427L-84.5236 204.957L-84.52 204.954ZM-116.697 60.778L-129.404 60.2984L-122.656 110.455L-116.697 60.778ZM-177.711 26.5332L-180.198 -64.2804L-213.346 -52.1055L-177.711 26.5399L-177.711 26.5332ZM-179.843 -65.0892L-138.996 -115.27L-182.392 -94.7884L-179.843 -65.0892ZM-215.82 -151.162L-239.489 -100.701L-182.983 -95.1525L-215.82 -151.162ZM-253.648 -152.862L-259.241 -136.841L-240.416 -102.097L-253.651 -152.866L-253.648 -152.862ZM-283.677 -175.518L-260.598 -200.308L-316.534 -237.88L-283.677 -175.518ZM-192.498 -197.479L-215.315 -152.179L-143.16 -199.144L-192.498 -197.479ZM-45.9389 23.1603L-17.8082 10.7759L-39.1047 -48.555L-45.9395 23.1671L-45.9389 23.1603ZM153.543 63.8967L178.366 19.0772L92.1845 33.3792L153.543 63.8967ZM190.925 114.197L137.466 171.428L205.116 146.915L190.925 114.197Z" fill="url(#paint4_radial_0_404)"/>
<path d="M-138.57 -112.646C-137.728 -112.577 -136.895 -112.844 -136.253 -113.389C-135.611 -113.933 -135.211 -114.711 -135.142 -115.553C-135.072 -116.396 -135.34 -117.229 -135.884 -117.87C-136.428 -118.512 -137.206 -118.912 -138.048 -118.982C-138.891 -119.051 -139.724 -118.784 -140.366 -118.24C-141.008 -117.695 -141.408 -116.917 -141.477 -116.075C-141.546 -115.232 -141.279 -114.4 -140.735 -113.758C-140.19 -113.116 -139.413 -112.716 -138.57 -112.646ZM-175.463 29.9815C-176.105 30.5257 -176.938 30.793 -177.781 30.7237C-178.623 30.6543 -179.401 30.2544 -179.945 29.6125C-180.49 28.9705 -180.757 28.1377 -180.687 27.2952C-180.618 26.4527 -180.218 25.6748 -179.576 25.1305C-178.934 24.5863 -178.101 24.319 -177.259 24.3883C-176.417 24.4577 -175.639 24.8576 -175.094 25.4996C-174.55 26.1415 -174.283 26.9744 -174.352 27.8168C-174.422 28.6593 -174.821 29.4372 -175.463 29.9815ZM-78.0706 -134.25C-78.6148 -134.892 -78.8821 -135.725 -78.8128 -136.568C-78.7434 -137.41 -78.3435 -138.188 -77.7016 -138.732C-77.0596 -139.277 -76.2267 -139.544 -75.3843 -139.474C-74.5418 -139.405 -73.7639 -139.005 -73.2197 -138.363C-72.6754 -137.721 -72.408 -136.888 -72.4774 -136.046C-72.5468 -135.204 -72.9467 -134.426 -73.5886 -133.881C-74.2306 -133.337 -75.0634 -133.07 -75.9059 -133.139C-76.7484 -133.208 -77.5263 -133.608 -78.0706 -134.25ZM-153.269 -14.6338C-153.339 -13.7914 -153.739 -13.0134 -154.38 -12.4692C-155.022 -11.9249 -155.855 -11.6576 -156.698 -11.727C-157.54 -11.7963 -158.318 -12.1963 -158.862 -12.8382C-159.407 -13.4801 -159.674 -14.313 -159.605 -15.1554C-159.535 -15.9979 -159.135 -16.7758 -158.493 -17.3201C-157.851 -17.8644 -157.019 -18.1317 -156.176 -18.0623C-155.334 -17.9929 -154.556 -17.593 -154.011 -16.9511C-153.467 -16.3091 -153.2 -15.4763 -153.269 -14.6338ZM-140.453 -83.0203C-141.095 -82.4761 -141.928 -82.2087 -142.77 -82.2781C-143.613 -82.3475 -144.391 -82.7474 -144.935 -83.3893C-145.479 -84.0312 -145.746 -84.8641 -145.677 -85.7066C-145.608 -86.549 -145.208 -87.327 -144.566 -87.8712C-143.924 -88.4155 -143.091 -88.6828 -142.249 -88.6134C-141.406 -88.5441 -140.628 -88.1441 -140.084 -87.5022C-139.54 -86.8603 -139.272 -86.0274 -139.342 -85.185C-139.411 -84.3425 -139.811 -83.5646 -140.453 -83.0203ZM-94.8361 -53.7887C-95.3216 -54.3613 -95.5879 -55.0822 -95.5907 -55.8322C-95.5934 -56.5822 -95.3302 -57.3069 -94.852 -57.8816C-94.3738 -58.4563 -93.7041 -58.8422 -92.9705 -58.9752C-92.2339 -59.1045 -91.4747 -58.9708 -90.8269 -58.5985C-90.5094 -58.4163 -90.2269 -58.1793 -89.9919 -57.9021C-89.4476 -57.2602 -89.1803 -56.4274 -89.2497 -55.5849C-89.3191 -54.7424 -89.719 -53.9645 -90.3609 -53.4203C-91.0029 -52.876 -91.8357 -52.6087 -92.6782 -52.678C-93.5206 -52.7474 -94.2986 -53.1473 -94.8428 -53.7893M-163.976 21.9095C-164.52 21.2676 -164.788 20.4347 -164.718 19.5922C-164.649 18.7498 -164.249 17.9718 -163.607 17.4276C-162.965 16.8833 -162.132 16.616 -161.29 16.6854C-160.447 16.7547 -159.669 17.1547 -159.125 17.7966C-158.581 18.4385 -158.314 19.2714 -158.383 20.1139C-158.452 20.9563 -158.852 21.7342 -159.494 22.2785C-160.136 22.8227 -160.969 23.0901 -161.811 23.0207C-162.654 22.9513 -163.432 22.5514 -163.976 21.9095ZM-98.1297 -76.8317C-98.674 -77.4736 -98.9413 -78.3065 -98.8719 -79.1489C-98.8025 -79.9914 -98.4026 -80.7693 -97.7607 -81.3136C-97.1187 -81.8578 -96.2859 -82.1251 -95.4434 -82.0558C-94.601 -81.9864 -93.823 -81.5865 -93.2788 -80.9446C-92.7345 -80.3026 -92.4672 -79.4698 -92.5366 -78.6273C-92.6059 -77.7848 -93.0058 -77.0069 -93.6478 -76.4626C-94.2897 -75.9184 -95.1226 -75.6511 -95.965 -75.7204C-96.8075 -75.7898 -97.5854 -76.1897 -98.1297 -76.8317ZM-140.738 -24.876C-141.282 -25.5179 -141.55 -26.3508 -141.48 -27.1933C-141.411 -28.0357 -141.011 -28.8137 -140.369 -29.3579C-139.727 -29.9022 -138.894 -30.1695 -138.052 -30.1001C-137.209 -30.0308 -136.431 -29.6308 -135.887 -28.9889C-135.343 -28.347 -135.076 -27.5141 -135.145 -26.6716C-135.214 -25.8292 -135.614 -25.0512 -136.256 -24.507C-136.898 -23.9627 -137.731 -23.6954 -138.573 -23.7648C-139.416 -23.8341 -140.194 -24.2341 -140.738 -24.876ZM-64.9565 -22.2667C-65.5008 -22.9087 -65.7681 -23.7415 -65.6987 -24.584C-65.6294 -25.4265 -65.2294 -26.2044 -64.5875 -26.7487C-63.9456 -27.2929 -63.1127 -27.5602 -62.2703 -27.4908C-61.4278 -27.4215 -60.6499 -27.0215 -60.1056 -26.3796C-59.5614 -25.7377 -59.2941 -24.9048 -59.3634 -24.0624C-59.4328 -23.2199 -59.8327 -22.442 -60.4746 -21.8977C-61.1166 -21.3535 -61.9494 -21.0862 -62.7919 -21.1555C-63.6344 -21.2249 -64.4123 -21.6248 -64.9565 -22.2667ZM-41.6924 -47.408C-42.2366 -48.05 -42.5039 -48.8828 -42.4346 -49.7253C-42.3652 -50.5678 -41.9653 -51.3457 -41.3234 -51.89C-40.6814 -52.4342 -39.8486 -52.7015 -39.0061 -52.6321C-38.1637 -52.5628 -37.3857 -52.1629 -36.8415 -51.5209C-36.2972 -50.879 -36.0299 -50.0461 -36.0993 -49.2037C-36.1686 -48.3612 -36.5685 -47.5833 -37.2105 -47.0391C-37.8524 -46.4948 -38.6853 -46.2275 -39.5277 -46.2968C-40.3702 -46.3662 -41.1481 -46.7661 -41.6924 -47.408ZM-79.6328 38.5061C-80.1771 37.8641 -80.4444 37.0313 -80.375 36.1888C-80.3057 35.3463 -79.9057 34.5684 -79.2638 34.0242C-78.6219 33.4799 -77.789 33.2126 -76.9466 33.282C-76.1041 33.3513 -75.3262 33.7512 -74.7819 34.3932C-74.2376 35.0351 -73.9703 35.868 -74.0397 36.7104C-74.1091 37.5529 -74.509 38.3308 -75.1509 38.8751C-75.7929 39.4194 -76.6257 39.6867 -77.4682 39.6173C-78.3106 39.5479 -79.0886 39.148 -79.6328 38.5061ZM-48.6439 25.5665C-49.1881 24.9246 -49.4554 24.0917 -49.3861 23.2492C-49.3167 22.4068 -48.9168 21.6288 -48.2749 21.0846C-47.6329 20.5403 -46.8001 20.273 -45.9576 20.3424C-45.1151 20.4117 -44.3372 20.8117 -43.7929 21.4536C-43.2487 22.0955 -42.9814 22.9284 -43.0507 23.7709C-43.1201 24.6133 -43.5201 25.3912 -44.162 25.9355C-44.8039 26.4798 -45.6367 26.7471 -46.4792 26.6777C-47.3217 26.6083 -48.0996 26.2084 -48.6439 25.5665ZM-82.4424 -7.02115C-82.9867 -7.66308 -83.254 -8.49595 -83.1847 -9.33841C-83.1153 -10.1809 -82.7154 -10.9588 -82.0734 -11.5031C-81.4315 -12.0473 -80.5986 -12.3146 -79.7562 -12.2453C-78.9137 -12.1759 -78.1358 -11.776 -77.5915 -11.134C-77.0473 -10.4921 -76.7799 -9.65926 -76.8493 -8.81679C-76.9187 -7.97433 -77.3186 -7.19639 -77.9605 -6.65213C-78.6025 -6.10787 -79.4353 -5.84057 -80.2778 -5.90993C-81.1203 -5.9793 -81.8982 -6.37922 -82.4424 -7.02115ZM-132.101 62.1657C-132.646 61.5237 -132.913 60.6909 -132.844 59.8484C-132.774 59.0059 -132.374 58.228 -131.732 57.6837C-131.091 57.1395 -130.258 56.8722 -129.415 56.9416C-128.573 57.0109 -127.795 57.4108 -127.251 58.0528C-126.706 58.6947 -126.439 59.5276 -126.508 60.37C-126.578 61.2125 -126.978 61.9904 -127.62 62.5347C-128.262 63.0789 -129.094 63.3462 -129.937 63.2769C-130.779 63.2075 -131.557 62.8076 -132.101 62.1657ZM-118.928 62.6634C-119.472 62.0214 -119.739 61.1886 -119.67 60.3461C-119.601 59.5036 -119.201 58.7257 -118.559 58.1815C-117.917 57.6372 -117.084 57.3699 -116.242 57.4392C-115.399 57.5086 -114.621 57.9086 -114.077 58.5505C-113.533 59.1924 -113.265 60.0253 -113.335 60.8677C-113.404 61.7102 -113.804 62.4881 -114.446 63.0324C-115.088 63.5766 -115.921 63.8439 -116.763 63.7746C-117.606 63.7052 -118.384 63.3053 -118.928 62.6634ZM-20.0203 12.9648C-20.5645 12.3229 -20.8319 11.49 -20.7625 10.6475C-20.6931 9.80507 -20.2932 9.02716 -19.6513 8.4829C-19.0093 7.93864 -18.1765 7.67131 -17.334 7.74068C-16.4916 7.81004 -15.7136 8.20997 -15.1694 8.8519C-14.6251 9.49382 -14.3578 10.3267 -14.4272 11.1692C-14.4965 12.0116 -14.8965 12.7896 -15.5384 13.3338C-16.1803 13.8781 -17.0132 14.1454 -17.8556 14.076C-18.6981 14.0067 -19.476 13.6067 -20.0203 12.9648ZM-10.9248 69.4625C-11.4691 68.8205 -11.7363 67.9877 -11.667 67.1452C-11.5976 66.3027 -11.1977 65.5248 -10.5558 64.9806C-9.91384 64.4363 -9.08099 64.169 -8.23853 64.2384C-7.39606 64.3077 -6.61815 64.7076 -6.07389 65.3496C-5.52962 65.9915 -5.26232 66.8244 -5.33168 67.6668C-5.40105 68.5093 -5.80095 69.2872 -6.44288 69.8315C-7.08481 70.3757 -7.91768 70.643 -8.76014 70.5737C-9.6026 70.5043 -10.3805 70.1044 -10.9248 69.4625ZM14.2262 10.4851C13.6819 9.84313 13.4146 9.0103 13.484 8.16784C13.5534 7.32538 13.9533 6.54744 14.5952 6.00318C15.2371 5.45892 16.07 5.19162 16.9125 5.26098C17.7549 5.33034 18.5328 5.73025 19.0771 6.37217C19.6214 7.0141 19.8887 7.84697 19.8193 8.68944C19.7499 9.5319 19.35 10.3098 18.7081 10.8541C18.0662 11.3984 17.2333 11.6657 16.3908 11.5963C15.5484 11.5269 14.7705 11.127 14.2262 10.4851ZM-125.107 114.144C-125.651 113.502 -125.919 112.669 -125.849 111.827C-125.78 110.985 -125.38 110.207 -124.738 109.662C-124.096 109.118 -123.263 108.851 -122.421 108.92C-121.578 108.99 -120.801 109.389 -120.256 110.031C-119.712 110.673 -119.445 111.506 -119.514 112.349C-119.583 113.191 -119.983 113.969 -120.625 114.513C-121.267 115.058 -122.1 115.325 -122.943 115.256C-123.785 115.186 -124.563 114.786 -125.107 114.144ZM-86.8343 207.931C-87.3786 207.289 -87.6459 206.457 -87.5765 205.614C-87.5072 204.772 -87.1072 203.994 -86.4653 203.449C-85.8234 202.905 -84.9905 202.638 -84.148 202.707C-83.3056 202.777 -82.5277 203.177 -81.9834 203.818C-81.4391 204.46 -81.1718 205.293 -81.2412 206.136C-81.3106 206.978 -81.7105 207.756 -82.3524 208.3C-82.9943 208.845 -83.8272 209.112 -84.6697 209.043C-85.5121 208.973 -86.29 208.573 -86.8343 207.931ZM-81.836 130.782C-82.3802 130.141 -82.6475 129.308 -82.5782 128.465C-82.5088 127.623 -82.1089 126.845 -81.467 126.301C-80.825 125.756 -79.9922 125.489 -79.1497 125.558C-78.3072 125.628 -77.5293 126.028 -76.9851 126.67C-76.4408 127.311 -76.1735 128.144 -76.2428 128.987C-76.3122 129.829 -76.7122 130.607 -77.3541 131.151C-77.996 131.696 -78.8289 131.963 -79.6713 131.894C-80.5138 131.824 -81.2917 131.424 -81.836 130.782ZM-61.2678 180.004C-61.8121 179.362 -62.0794 178.529 -62.01 177.687C-61.9407 176.845 -61.5407 176.067 -60.8988 175.522C-60.2569 174.978 -59.424 174.711 -58.5815 174.78C-57.7391 174.849 -56.9612 175.249 -56.4169 175.891C-55.8726 176.533 -55.6053 177.366 -55.6747 178.209C-55.7441 179.051 -56.144 179.829 -56.7859 180.373C-57.4279 180.917 -58.2607 181.185 -59.1032 181.115C-59.9456 181.046 -60.7236 180.646 -61.2678 180.004ZM-38.4121 65.7913C-38.9564 65.1494 -39.2237 64.3165 -39.1543 63.4741C-39.085 62.6316 -38.685 61.8537 -38.0431 61.3094C-37.4012 60.7652 -36.5683 60.4979 -35.7259 60.5672C-34.8834 60.6366 -34.1055 61.0365 -33.5612 61.6785C-33.0169 62.3204 -32.7496 63.1533 -32.819 63.9957C-32.8884 64.8382 -33.2883 65.6161 -33.9302 66.1603C-34.5721 66.7046 -35.405 66.9719 -36.2475 66.9026C-37.0899 66.8332 -37.8679 66.4333 -38.4121 65.7913ZM-101.847 89.0061C-102.391 88.3641 -102.658 87.5313 -102.589 86.6888C-102.519 85.8463 -102.12 85.0684 -101.478 84.5242C-100.836 83.9799 -100.003 83.7126 -99.1604 83.7819C-98.3179 83.8513 -97.54 84.2513 -96.9957 84.8932C-96.4515 85.5351 -96.1842 86.368 -96.2535 87.2104C-96.3229 88.0529 -96.7228 88.8308 -97.3647 89.3751C-98.0067 89.9194 -98.8395 90.1866 -99.682 90.1173C-100.524 90.0479 -101.302 89.648 -101.847 89.0061ZM-39.354 93.673C-39.8983 93.0311 -40.1656 92.1982 -40.0963 91.3557C-40.0269 90.5133 -39.627 89.7354 -38.985 89.1911C-38.3431 88.6468 -37.5102 88.3795 -36.6678 88.4489C-35.8253 88.5183 -35.0474 88.9182 -34.5031 89.5601C-33.9589 90.202 -33.6916 91.0349 -33.7609 91.8773C-33.8303 92.7198 -34.2302 93.4977 -34.8722 94.042C-35.5141 94.5863 -36.3469 94.8536 -37.1894 94.7842C-38.0319 94.7148 -38.8098 94.3149 -39.354 93.673ZM-33.2386 137.494C-33.8805 138.039 -34.7134 138.306 -35.5559 138.237C-36.3983 138.167 -37.1763 137.767 -37.7205 137.125C-38.2648 136.484 -38.5321 135.651 -38.4627 134.808C-38.3933 133.966 -37.9934 133.188 -37.3515 132.644C-36.7096 132.099 -35.8767 131.832 -35.0342 131.901C-34.1918 131.971 -33.4139 132.371 -32.8696 133.013C-32.3253 133.654 -32.058 134.487 -32.1274 135.33C-32.1968 136.172 -32.5967 136.95 -33.2386 137.494ZM15.8192 78.4532C15.2749 77.8113 15.0076 76.9784 15.077 76.1359C15.1464 75.2935 15.5463 74.5156 16.1882 73.9713C16.8302 73.427 17.663 73.1597 18.5054 73.2291C19.3479 73.2985 20.1258 73.6984 20.6701 74.3403C21.2144 74.9822 21.4817 75.8151 21.4123 76.6576C21.3429 77.5 20.943 78.278 20.3011 78.8222C19.6592 79.3665 18.8263 79.6338 17.9839 79.5644C17.1414 79.4951 16.3635 79.0951 15.8192 78.4532ZM-40.4947 194.678C-41.039 194.036 -41.3063 193.203 -41.2369 192.361C-41.1675 191.518 -40.7676 190.74 -40.1257 190.196C-39.4838 189.652 -38.6509 189.385 -37.8084 189.454C-36.966 189.523 -36.1881 189.923 -35.6438 190.565C-35.0995 191.207 -34.8322 192.04 -34.9016 192.882C-34.9709 193.725 -35.3709 194.503 -36.0128 195.047C-36.6547 195.591 -37.4876 195.859 -38.33 195.789C-39.1725 195.72 -39.9504 195.32 -40.4947 194.678ZM89.0633 35.3609C88.5191 34.7189 88.2518 33.8861 88.3211 33.0436C88.3905 32.2012 88.7905 31.4232 89.4324 30.879C90.0743 30.3347 90.9071 30.0674 91.7496 30.1368C92.5921 30.2061 93.37 30.6061 93.9143 31.248C94.4585 31.8899 94.7258 32.7228 94.6565 33.5653C94.5871 34.4077 94.1872 35.1856 93.5453 35.7299C92.9033 36.2742 92.0705 36.5415 91.228 36.4721C90.3855 36.4027 89.6076 36.0028 89.0633 35.3609ZM10.4636 205.639C9.91935 204.997 9.65206 204.164 9.72142 203.321C9.79079 202.479 10.1907 201.701 10.8326 201.157C11.4746 200.613 12.3074 200.345 13.1499 200.415C13.9924 200.484 14.7703 200.884 15.3145 201.526C15.8588 202.168 16.1261 203.001 16.0567 203.843C15.9874 204.686 15.5875 205.463 14.9455 206.008C14.3036 206.552 13.4707 206.819 12.6283 206.75C11.7858 206.681 11.0079 206.281 10.4636 205.639ZM67.011 92.3881C66.4667 91.7462 66.1994 90.9133 66.2688 90.0709C66.3382 89.2284 66.7381 88.4505 67.38 87.9062C68.0219 87.362 68.8548 87.0947 69.6973 87.164C70.5397 87.2334 71.3177 87.6333 71.8619 88.2753C72.4062 88.9172 72.6735 89.75 72.6041 90.5925C72.5347 91.435 72.1348 92.2129 71.4929 92.7572C70.851 93.3014 70.0181 93.5687 69.1757 93.4993C68.3332 93.43 67.5553 93.0301 67.011 92.3881ZM5.40732 165.765C4.86305 165.123 4.59576 164.291 4.66512 163.448C4.73449 162.606 5.13442 161.828 5.77634 161.283C6.41827 160.739 7.25113 160.472 8.09359 160.541C8.93605 160.611 9.71398 161.011 10.2582 161.652C10.8025 162.294 11.0698 163.127 11.0004 163.97C10.9311 164.812 10.5312 165.59 9.88924 166.134C9.24731 166.679 8.41444 166.946 7.57198 166.877C6.72951 166.807 5.95158 166.407 5.40732 165.765ZM51.2168 165.255C50.6725 164.614 50.4052 163.781 50.4746 162.938C50.544 162.096 50.9439 161.318 51.5858 160.774C52.2277 160.229 53.0606 159.962 53.903 160.031C54.7455 160.101 55.5234 160.501 56.0677 161.143C56.612 161.785 56.8793 162.617 56.8099 163.46C56.7405 164.302 56.3406 165.08 55.6987 165.624C55.0568 166.169 54.2239 166.436 53.3815 166.367C52.539 166.297 51.7611 165.897 51.2168 165.255ZM151.165 66.2449C150.621 65.603 150.353 64.7701 150.423 63.9277C150.492 63.0852 150.892 62.3073 151.534 61.763C152.176 61.2188 153.009 60.9514 153.851 61.0208C154.694 61.0902 155.472 61.4901 156.016 62.132C156.56 62.774 156.827 63.6068 156.758 64.4493C156.689 65.2917 156.289 66.0697 155.647 66.6139C155.005 67.1582 154.172 67.4255 153.33 67.3561C152.487 67.2868 151.709 66.8868 151.165 66.2449ZM134.277 173.987C133.733 173.345 133.466 172.513 133.535 171.67C133.604 170.828 134.004 170.05 134.646 169.505C135.288 168.961 136.121 168.694 136.963 168.763C137.806 168.833 138.584 169.233 139.128 169.874C139.672 170.516 139.94 171.349 139.87 172.192C139.801 173.034 139.401 173.812 138.759 174.356C138.117 174.901 137.284 175.168 136.442 175.099C135.599 175.029 134.821 174.629 134.277 173.987ZM33.3896 217.447C33.9338 218.088 34.2011 218.921 34.1318 219.764C34.0624 220.606 33.6625 221.384 33.0206 221.928C32.3786 222.473 31.5458 222.74 30.7033 222.671C29.8608 222.601 29.0829 222.201 28.5387 221.559C27.9944 220.918 27.7271 220.085 27.7965 219.242C27.8658 218.4 28.2658 217.622 28.9077 217.078C29.5496 216.533 30.3825 216.266 31.2249 216.335C32.0674 216.405 32.8453 216.805 33.3896 217.447ZM189.466 88.0311C188.922 87.3892 188.655 86.5563 188.724 85.7139C188.793 84.8714 189.193 84.0935 189.835 83.5492C190.477 83.0049 191.31 82.7376 192.152 82.807C192.995 82.8764 193.773 83.2763 194.317 83.9182C194.861 84.5602 195.129 85.393 195.059 86.2355C194.99 87.0779 194.59 87.8559 193.948 88.4001C193.306 88.9444 192.473 89.2117 191.631 89.1423C190.788 89.073 190.01 88.6731 189.466 88.0311ZM102.03 107.516C101.961 108.358 101.561 109.136 100.919 109.68C100.277 110.225 99.444 110.492 98.6016 110.423C97.7591 110.353 96.9812 109.953 96.4369 109.311C95.8926 108.669 95.6253 107.837 95.6947 106.994C95.7641 106.152 96.164 105.374 96.8059 104.829C97.4478 104.285 98.2807 104.018 99.1232 104.087C99.9656 104.157 100.744 104.556 101.288 105.198C101.832 105.84 102.099 106.673 102.03 107.516ZM134.232 132.26C133.59 132.804 132.757 133.072 131.915 133.002C131.072 132.933 130.294 132.533 129.75 131.891C129.206 131.249 128.938 130.416 129.008 129.574C129.077 128.732 129.477 127.954 130.119 127.409C130.761 126.865 131.594 126.598 132.436 126.667C133.279 126.736 134.057 127.136 134.601 127.778C135.145 128.42 135.412 129.253 135.343 130.096C135.274 130.938 134.874 131.716 134.232 132.26ZM45.0375 216.736C44.4932 216.094 44.2259 215.262 44.2953 214.419C44.3647 213.577 44.7646 212.799 45.4065 212.254C46.0484 211.71 46.8813 211.443 47.7238 211.512C48.5662 211.582 49.3442 211.982 49.8884 212.624C50.4327 213.265 50.7 214.098 50.6306 214.941C50.5613 215.783 50.1613 216.561 49.5194 217.105C48.8775 217.65 48.0446 217.917 47.2022 217.848C46.3597 217.778 45.5818 217.378 45.0375 216.736ZM188.524 115.913C187.98 115.271 187.713 114.438 187.782 113.596C187.851 112.753 188.251 111.975 188.893 111.431C189.535 110.887 190.368 110.619 191.21 110.689C192.053 110.758 192.831 111.158 193.375 111.8C193.919 112.442 194.187 113.275 194.117 114.117C194.048 114.96 193.648 115.738 193.006 116.282C192.364 116.826 191.531 117.093 190.689 117.024C189.846 116.955 189.068 116.555 188.524 115.913ZM137.755 204.397C137.685 205.24 137.285 206.018 136.643 206.562C136.001 207.106 135.169 207.374 134.326 207.304C133.484 207.235 132.706 206.835 132.162 206.193C131.617 205.551 131.35 204.718 131.419 203.876C131.489 203.033 131.889 202.255 132.531 201.711C133.172 201.167 134.005 200.9 134.848 200.969C135.69 201.038 136.468 201.438 137.012 202.08C137.557 202.722 137.824 203.555 137.755 204.397ZM42.9414 254.762C42.3972 254.12 42.1299 253.287 42.1992 252.445C42.2686 251.602 42.6685 250.825 43.3105 250.28C43.9524 249.736 44.7852 249.469 45.6277 249.538C46.4702 249.607 47.2481 250.007 47.7924 250.649C48.3366 251.291 48.6039 252.124 48.5346 252.967C48.4652 253.809 48.0653 254.587 47.4233 255.131C46.7814 255.675 45.9486 255.943 45.1061 255.873C44.2636 255.804 43.4857 255.404 42.9414 254.762ZM88.4905 238.255C87.648 238.185 86.8701 237.785 86.3258 237.143C85.7815 236.502 85.5142 235.669 85.5836 234.826C85.653 233.984 86.0529 233.206 86.6948 232.662C87.3367 232.117 88.1696 231.85 89.0121 231.919C89.8545 231.989 90.6325 232.389 91.1767 233.031C91.721 233.672 91.9883 234.505 91.9189 235.348C91.8496 236.19 91.4496 236.968 90.8077 237.512C90.1658 238.057 89.3329 238.324 88.4905 238.255ZM58.2038 217.24C57.6595 216.598 57.3922 215.765 57.4616 214.923C57.5309 214.081 57.9309 213.303 58.5728 212.758C59.2147 212.214 60.0476 211.947 60.89 212.016C61.7325 212.086 62.5104 212.485 63.0547 213.127C63.599 213.769 63.8663 214.602 63.7969 215.445C63.7275 216.287 63.3276 217.065 62.6857 217.609C62.0438 218.154 61.2109 218.421 60.3684 218.352C59.526 218.282 58.748 217.882 58.2038 217.24ZM69.2709 240.726C69.4435 240.361 69.6844 240.031 69.982 239.754C70.581 239.196 71.3725 238.894 72.1894 238.904C72.596 238.91 72.9965 238.991 73.3701 239.151C73.7443 239.303 74.0848 239.535 74.3738 239.817L69.723 244.136C69.1942 243.512 68.9246 242.706 68.9747 241.893C69.0012 241.488 69.0983 241.092 69.2745 240.723L69.2709 240.726ZM75.3124 242.344C75.2431 243.186 74.8432 243.964 74.2012 244.508C73.5593 245.052 72.7264 245.32 71.884 245.25C71.0415 245.181 70.2636 244.781 69.7193 244.139L74.5666 240.029C75.1109 240.671 75.3782 241.504 75.3088 242.347L75.3124 242.344ZM173.068 188.594C172.523 187.952 172.256 187.119 172.325 186.277C172.395 185.434 172.795 184.657 173.437 184.112C174.079 183.568 174.911 183.301 175.754 183.37C176.596 183.439 177.374 183.839 177.918 184.481C178.463 185.123 178.73 185.956 178.661 186.799C178.591 187.641 178.191 188.419 177.549 188.963C176.908 189.507 176.075 189.775 175.232 189.705C174.39 189.636 173.612 189.236 173.068 188.594ZM202.923 149.119C202.379 148.477 202.112 147.644 202.181 146.801C202.25 145.959 202.65 145.181 203.292 144.637C203.934 144.092 204.767 143.825 205.61 143.894C206.452 143.964 207.23 144.364 207.774 145.006C208.318 145.648 208.586 146.481 208.516 147.323C208.447 148.165 208.047 148.943 207.405 149.488C206.763 150.032 205.93 150.299 205.088 150.23C204.245 150.16 203.468 149.761 202.923 149.119ZM221.781 218.535C221.237 217.893 220.97 217.061 221.039 216.218C221.108 215.376 221.508 214.598 222.15 214.053C222.792 213.509 223.625 213.242 224.467 213.311C225.31 213.381 226.088 213.781 226.632 214.422C227.176 215.064 227.444 215.897 227.374 216.74C227.305 217.582 226.905 218.36 226.263 218.904C225.621 219.449 224.788 219.716 223.946 219.647C223.103 219.577 222.325 219.177 221.781 218.535ZM173.237 227.614C172.693 226.972 172.426 226.139 172.495 225.297C172.565 224.454 172.965 223.676 173.606 223.132C174.248 222.588 175.081 222.321 175.924 222.39C176.766 222.459 177.544 222.859 178.088 223.501C178.633 224.143 178.9 224.976 178.831 225.818C178.761 226.661 178.361 227.439 177.719 227.983C177.077 228.527 176.245 228.795 175.402 228.725C174.56 228.656 173.782 228.256 173.237 227.614ZM115.262 323.845C114.718 323.203 114.45 322.37 114.52 321.527C114.589 320.685 114.989 319.907 115.631 319.363C116.273 318.818 117.106 318.551 117.948 318.62C118.791 318.69 119.569 319.09 120.113 319.732C120.657 320.374 120.924 321.206 120.855 322.049C120.786 322.891 120.386 323.669 119.744 324.214C119.102 324.758 118.269 325.025 117.427 324.956C116.584 324.886 115.806 324.487 115.262 323.845ZM228.147 278.15C227.304 278.081 226.526 277.681 225.982 277.039C225.438 276.397 225.171 275.564 225.24 274.722C225.309 273.879 225.709 273.101 226.351 272.557C226.993 272.013 227.826 271.745 228.668 271.815C229.511 271.884 230.289 272.284 230.833 272.926C231.377 273.568 231.645 274.401 231.575 275.243C231.506 276.086 231.106 276.864 230.464 277.408C229.822 277.952 228.989 278.219 228.147 278.15ZM36.1877 350.471C36.732 351.112 36.9993 351.945 36.9299 352.788C36.8606 353.63 36.4606 354.408 35.8187 354.952C35.1768 355.497 34.3439 355.764 33.5014 355.695C32.659 355.625 31.8811 355.225 31.3368 354.583C30.7925 353.941 30.5252 353.109 30.5946 352.266C30.664 351.424 31.0639 350.646 31.7058 350.101C32.3477 349.557 33.1806 349.29 34.0231 349.359C34.8655 349.429 35.6435 349.829 36.1877 350.471ZM137.318 266.807C136.774 266.166 136.507 265.333 136.576 264.49C136.646 263.648 137.045 262.87 137.687 262.326C138.329 261.781 139.162 261.514 140.005 261.583C140.847 261.653 141.625 262.053 142.169 262.695C142.714 263.337 142.981 264.169 142.912 265.012C142.842 265.854 142.442 266.632 141.8 267.177C141.158 267.721 140.326 267.988 139.483 267.919C138.641 267.849 137.863 267.449 137.318 266.807ZM46.8442 278.524C47.3885 279.166 47.6558 279.998 47.5864 280.841C47.5171 281.683 47.1171 282.461 46.4752 283.006C45.8333 283.55 45.0004 283.817 44.158 283.748C43.3155 283.678 42.5376 283.278 41.9933 282.637C41.4491 281.995 41.1818 281.162 41.2511 280.319C41.3205 279.477 41.7204 278.699 42.3623 278.155C43.0043 277.61 43.8371 277.343 44.6796 277.412C45.522 277.482 46.3 277.882 46.8442 278.524ZM76.368 281.402C75.8237 280.76 75.5564 279.928 75.6258 279.085C75.6951 278.243 76.0951 277.465 76.737 276.92C77.3789 276.376 78.2118 276.109 79.0542 276.178C79.8967 276.248 80.6746 276.648 81.2189 277.289C81.7631 277.931 82.0305 278.764 81.9611 279.607C81.8917 280.449 81.4918 281.227 80.8499 281.771C80.2079 282.316 79.3751 282.583 78.5326 282.514C77.6901 282.444 76.9122 282.044 76.368 281.402ZM-286.189 -173.099C-286.734 -173.741 -287.001 -174.574 -286.932 -175.416C-286.862 -176.259 -286.462 -177.037 -285.82 -177.581C-285.179 -178.125 -284.346 -178.392 -283.503 -178.323C-282.661 -178.254 -281.883 -177.854 -281.339 -177.212C-280.794 -176.57 -280.527 -175.737 -280.596 -174.895C-280.666 -174.052 -281.066 -173.274 -281.708 -172.73C-282.35 -172.186 -283.182 -171.918 -284.025 -171.988C-284.867 -172.057 -285.645 -172.457 -286.189 -173.099ZM-357.16 -155.35C-357.705 -155.991 -357.972 -156.824 -357.903 -157.667C-357.833 -158.509 -357.433 -159.287 -356.791 -159.831C-356.15 -160.376 -355.317 -160.643 -354.474 -160.574C-353.632 -160.504 -352.854 -160.104 -352.31 -159.462C-351.765 -158.821 -351.498 -157.988 -351.567 -157.145C-351.637 -156.303 -352.037 -155.525 -352.679 -154.981C-353.32 -154.436 -354.153 -154.169 -354.996 -154.238C-355.838 -154.308 -356.616 -154.708 -357.16 -155.35ZM-332.431 -99.4307C-332.976 -100.073 -333.243 -100.905 -333.173 -101.748C-333.104 -102.59 -332.704 -103.368 -332.062 -103.913C-331.42 -104.457 -330.587 -104.724 -329.745 -104.655C-328.903 -104.585 -328.125 -104.185 -327.58 -103.544C-327.036 -102.902 -326.769 -102.069 -326.838 -101.226C-326.908 -100.384 -327.307 -99.6059 -327.949 -99.0616C-328.591 -98.5174 -329.424 -98.2501 -330.267 -98.3195C-331.109 -98.3888 -331.887 -98.7887 -332.431 -99.4307ZM-319.557 -236.433C-320.101 -237.075 -320.368 -237.908 -320.299 -238.75C-320.23 -239.593 -319.83 -240.371 -319.188 -240.915C-318.546 -241.459 -317.713 -241.727 -316.87 -241.657C-316.028 -241.588 -315.25 -241.188 -314.706 -240.546C-314.161 -239.904 -313.894 -239.071 -313.964 -238.229C-314.033 -237.386 -314.433 -236.608 -315.075 -236.064C-315.717 -235.52 -316.55 -235.252 -317.392 -235.322C-318.234 -235.391 -319.012 -235.791 -319.557 -236.433ZM-256.549 -154.872C-256.383 -155.239 -256.146 -155.565 -255.855 -155.843C-255.269 -156.402 -254.493 -156.722 -253.682 -156.726C-252.874 -156.734 -252.091 -156.432 -251.495 -155.878L-256.077 -151.492C-256.6 -152.108 -256.867 -152.904 -256.827 -153.715C-256.804 -154.116 -256.711 -154.509 -256.542 -154.872L-256.549 -154.872ZM-261.926 -134.759C-262.471 -135.401 -262.738 -136.234 -262.669 -137.076C-262.599 -137.918 -262.199 -138.696 -261.557 -139.241C-260.915 -139.785 -260.083 -140.052 -259.24 -139.983C-258.398 -139.914 -257.62 -139.514 -257.076 -138.872C-256.531 -138.23 -256.264 -137.397 -256.333 -136.554C-256.403 -135.712 -256.803 -134.934 -257.445 -134.39C-258.086 -133.845 -258.919 -133.578 -259.762 -133.648C-260.604 -133.717 -261.382 -134.117 -261.926 -134.759ZM-253.922 -150.385C-254.765 -150.454 -255.543 -150.854 -256.087 -151.496L-251.24 -155.606C-250.695 -154.964 -250.428 -154.131 -250.498 -153.288C-250.567 -152.446 -250.967 -151.668 -251.609 -151.124C-252.251 -150.58 -253.084 -150.312 -253.926 -150.382L-253.922 -150.385ZM-262.772 -202.37C-262.294 -202.945 -261.624 -203.331 -260.89 -203.464C-260.154 -203.593 -259.395 -203.459 -258.747 -203.087L-262.759 -198.281C-263.242 -198.85 -263.511 -199.574 -263.514 -200.324C-263.516 -201.074 -263.253 -201.799 -262.775 -202.374L-262.772 -202.37ZM-257.909 -202.387L-258.744 -203.083C-258.426 -202.901 -258.144 -202.664 -257.909 -202.387ZM-262.756 -198.277L-257.909 -202.387C-257.365 -201.745 -257.097 -200.912 -257.167 -200.07C-257.236 -199.227 -257.636 -198.449 -258.278 -197.905C-258.92 -197.361 -259.753 -197.094 -260.595 -197.163C-261.437 -197.232 -262.215 -197.632 -262.76 -198.274L-262.756 -198.277ZM-242.259 -98.4593C-242.803 -99.1012 -243.07 -99.9341 -243.001 -100.777C-242.932 -101.619 -242.532 -102.397 -241.89 -102.941C-241.248 -103.485 -240.415 -103.753 -239.572 -103.683C-238.73 -103.614 -237.952 -103.214 -237.408 -102.572C-236.864 -101.93 -236.596 -101.097 -236.666 -100.255C-236.735 -99.4124 -237.135 -98.6345 -237.777 -98.0902C-238.419 -97.546 -239.252 -97.2787 -240.094 -97.3481C-240.937 -97.4174 -241.714 -97.8173 -242.259 -98.4593ZM-144.906 -197.307C-145.45 -197.949 -145.717 -198.782 -145.648 -199.624C-145.579 -200.467 -145.179 -201.245 -144.537 -201.789C-143.895 -202.333 -143.062 -202.6 -142.219 -202.531C-141.377 -202.462 -140.599 -202.062 -140.055 -201.42C-139.511 -200.778 -139.243 -199.945 -139.313 -199.103C-139.382 -198.26 -139.782 -197.482 -140.424 -196.938C-141.066 -196.394 -141.899 -196.126 -142.741 -196.196C-143.584 -196.265 -144.362 -196.665 -144.906 -197.307ZM-218.305 -149.532C-218.849 -150.174 -219.116 -151.007 -219.047 -151.849C-218.978 -152.692 -218.578 -153.469 -217.936 -154.014C-217.294 -154.558 -216.461 -154.825 -215.619 -154.756C-214.776 -154.687 -213.998 -154.287 -213.454 -153.645C-212.91 -153.003 -212.642 -152.17 -212.712 -151.327C-212.781 -150.485 -213.181 -149.707 -213.823 -149.163C-214.465 -148.619 -215.298 -148.351 -216.14 -148.421C-216.983 -148.49 -217.761 -148.89 -218.305 -149.532ZM-158.969 -133.305C-159.514 -133.947 -159.781 -134.779 -159.711 -135.622C-159.642 -136.464 -159.242 -137.242 -158.6 -137.787C-157.958 -138.331 -157.125 -138.598 -156.283 -138.529C-155.441 -138.459 -154.663 -138.06 -154.118 -137.418C-153.574 -136.776 -153.307 -135.943 -153.376 -135.1C-153.445 -134.258 -153.845 -133.48 -154.487 -132.936C-155.129 -132.391 -155.962 -132.124 -156.805 -132.193C-157.647 -132.263 -158.425 -132.663 -158.969 -133.305ZM-195.095 -195.611C-195.639 -196.252 -195.906 -197.085 -195.837 -197.928C-195.767 -198.77 -195.367 -199.548 -194.725 -200.092C-194.084 -200.637 -193.251 -200.904 -192.408 -200.835C-191.566 -200.765 -190.788 -200.365 -190.244 -199.723C-189.699 -199.082 -189.432 -198.249 -189.501 -197.406C-189.571 -196.564 -189.971 -195.786 -190.613 -195.242C-191.255 -194.697 -192.087 -194.43 -192.93 -194.499C-193.772 -194.569 -194.55 -194.969 -195.095 -195.611ZM-182.464 -62.5031C-183.009 -63.1451 -183.276 -63.9779 -183.207 -64.8204C-183.137 -65.6628 -182.737 -66.4408 -182.095 -66.985C-181.453 -67.5293 -180.621 -67.7966 -179.778 -67.7272C-178.936 -67.6579 -178.158 -67.2579 -177.614 -66.616C-177.069 -65.9741 -176.802 -65.1412 -176.871 -64.2987C-176.941 -63.4563 -177.341 -62.6784 -177.983 -62.1341C-178.624 -61.5898 -179.457 -61.3225 -180.3 -61.3919C-181.142 -61.4613 -181.92 -61.8612 -182.464 -62.5031ZM-211.237 -54.27C-210.693 -53.628 -210.426 -52.7951 -210.495 -51.9527C-210.564 -51.1102 -210.964 -50.3323 -211.606 -49.788C-212.248 -49.2438 -213.081 -48.9765 -213.923 -49.0458C-214.766 -49.1152 -215.544 -49.5151 -216.088 -50.1571C-216.632 -50.799 -216.9 -51.6318 -216.83 -52.4743C-216.761 -53.3168 -216.361 -54.0947 -215.719 -54.6389C-215.077 -55.1832 -214.244 -55.4505 -213.402 -55.3812C-212.559 -55.3118 -211.781 -54.9119 -211.237 -54.27ZM-185.069 -92.8447C-185.613 -93.4867 -185.88 -94.3195 -185.811 -95.162C-185.742 -96.0044 -185.342 -96.7823 -184.7 -97.3266C-184.058 -97.8709 -183.225 -98.1382 -182.383 -98.0688C-181.54 -97.9995 -180.762 -97.5995 -180.218 -96.9576C-179.674 -96.3157 -179.406 -95.4828 -179.476 -94.6403C-179.545 -93.7979 -179.945 -93.02 -180.587 -92.4757C-181.229 -91.9314 -182.062 -91.6641 -182.904 -91.7335C-183.747 -91.8028 -184.525 -92.2028 -185.069 -92.8447Z" fill="url(#paint5_radial_0_404)"/>
</g>
<defs>
<radialGradient id="paint0_radial_0_404" cx="0" cy="0" r="1" gradientUnits="userSpaceOnUse" gradientTransform="translate(1207.59 492.691) rotate(-175.278) scale(287.378 287.378)">
<stop offset="0.34" stop-color="#9342F4" stop-opacity="0.8"/>
<stop offset="0.62" stop-color="#6282DF" stop-opacity="0.34"/>
<stop offset="0.83" stop-color="#3EB3D1" stop-opacity="0"/>
</radialGradient>
<radialGradient id="paint1_radial_0_404" cx="0" cy="0" r="1" gradientUnits="userSpaceOnUse" gradientTransform="translate(1207.59 492.69) rotate(-175.278) scale(287.569 287.569)">
<stop offset="0.34" stop-color="#9342F4"/>
<stop offset="0.57" stop-color="#6B76E3" stop-opacity="0.53"/>
<stop offset="0.83" stop-color="#3EB3D1" stop-opacity="0"/>
</radialGradient>
<radialGradient id="paint2_radial_0_404" cx="0" cy="0" r="1" gradientUnits="userSpaceOnUse" gradientTransform="translate(1208.96 476.063) rotate(-175.278) scale(285.766 285.766)">
<stop stop-color="#9342F4" stop-opacity="0.8"/>
<stop offset="0.29" stop-color="#9243F3" stop-opacity="0.79"/>
<stop offset="0.43" stop-color="#8E47F2" stop-opacity="0.76"/>
<stop offset="0.55" stop-color="#884FEF" stop-opacity="0.7"/>
<stop offset="0.65" stop-color="#805AEC" stop-opacity="0.63"/>
<stop offset="0.74" stop-color="#7568E7" stop-opacity="0.52"/>
<stop offset="0.82" stop-color="#687AE2" stop-opacity="0.4"/>
<stop offset="0.9" stop-color="#588FDB" stop-opacity="0.25"/>
<stop offset="0.97" stop-color="#46A7D4" stop-opacity="0.08"/>
<stop offset="1" stop-color="#3EB3D1" stop-opacity="0"/>
</radialGradient>
<radialGradient id="paint3_radial_0_404" cx="0" cy="0" r="1" gradientUnits="userSpaceOnUse" gradientTransform="translate(-39.3312 13.9911) rotate(49.7068) scale(287.378 287.378)">
<stop offset="0.34" stop-color="#9342F4" stop-opacity="0.8"/>
<stop offset="0.62" stop-color="#6282DF" stop-opacity="0.34"/>
<stop offset="0.83" stop-color="#3EB3D1" stop-opacity="0"/>
</radialGradient>
<radialGradient id="paint4_radial_0_404" cx="0" cy="0" r="1" gradientUnits="userSpaceOnUse" gradientTransform="translate(-39.3347 13.9874) rotate(49.7068) scale(287.569 287.569)">
<stop offset="0.34" stop-color="#9342F4"/>
<stop offset="0.57" stop-color="#6B76E3" stop-opacity="0.53"/>
<stop offset="0.83" stop-color="#3EB3D1" stop-opacity="0"/>
</radialGradient>
<radialGradient id="paint5_radial_0_404" cx="0" cy="0" r="1" gradientUnits="userSpaceOnUse" gradientTransform="translate(-52.0566 24.78) rotate(49.7068) scale(285.766 285.766)">
<stop stop-color="#9342F4" stop-opacity="0.8"/>
<stop offset="0.29" stop-color="#9243F3" stop-opacity="0.79"/>
<stop offset="0.43" stop-color="#8E47F2" stop-opacity="0.76"/>
<stop offset="0.55" stop-color="#884FEF" stop-opacity="0.7"/>
<stop offset="0.65" stop-color="#805AEC" stop-opacity="0.63"/>
<stop offset="0.74" stop-color="#7568E7" stop-opacity="0.52"/>
<stop offset="0.82" stop-color="#687AE2" stop-opacity="0.4"/>
<stop offset="0.9" stop-color="#588FDB" stop-opacity="0.25"/>
<stop offset="0.97" stop-color="#46A7D4" stop-opacity="0.08"/>
<stop offset="1" stop-color="#3EB3D1" stop-opacity="0"/>
</radialGradient>
</defs>
</svg>
